<svg width="555" height="555" viewBox="0 0 555 555" fill="none" xmlns="http://www.w3.org/2000/svg">
<g clip-path="url(#clip0_1_14)">
<path d="M138.889 138.889C166.301 111.478 201.224 92.8109 239.245 85.2482C277.265 77.6855 316.674 81.567 352.488 96.4017C388.303 111.237 418.914 136.358 440.45 168.59C461.987 200.822 473.482 238.717 473.482 277.482C473.482 316.247 461.987 354.142 440.45 386.374C418.914 418.606 388.303 443.728 352.488 458.563C316.674 473.397 277.265 477.279 239.245 469.716C201.224 462.153 166.301 443.486 138.889 416.075L277.482 277.482L138.889 138.889Z" fill="#3775A3"/>
<path d="M138.889 416.075C109.621 386.807 90.3705 349.025 83.8955 308.143L277.482 277.482L138.889 416.075Z" fill="#639AC2"/>
<path d="M81.5961 270.79C83.1532 225.206 100.559 181.593 130.815 147.463L277.482 277.481L81.5961 270.79Z" fill="#A5C5DC"/>
<path d="M84.3123 310.668C82.0863 297.711 81.1696 284.563 81.5762 271.422L277.482 277.483L84.3123 310.668Z" fill="#7CABCC"/>
<path d="M130.716 147.577C133.437 144.503 136.253 141.515 139.162 138.618L277.482 277.483L130.716 147.577Z" fill="#C3D8E7"/>
<path d="M419.682 145L352.001 264.934L394.301 341.075" stroke="#C3D8E7" stroke-width="2.98592" stroke-linecap="round"/>
<path opacity="0.5" d="M415.241 186.305L369.955 265.183L460.03 422.192" stroke="#C3D8E7" stroke-width="2.98592" stroke-linecap="round"/>
</g>
<defs>
<clipPath id="clip0_1_14">
<rect width="554.372" height="554.372" fill="white" transform="translate(0.296387 0.296875)"/>
</clipPath>
</defs>
</svg>
