<svg width="540" height="389" viewBox="0 0 540 389" fill="none" xmlns="http://www.w3.org/2000/svg">
<g opacity="0.03">
<path d="M208.265 0L97.7356 194.157L154.318 293.645H228.907L172.325 194.157L245.743 65.6827H391.993L465.338 194.157L391.993 322.631H357.443L320.039 388.314H429.397L540 194.157L429.397 0H208.265Z" fill="url(#paint0_linear_3512_7023)"/>
<path d="M65.8955 0L-45 194.157L65.8955 388.314H287.028L397.557 194.157L340.975 94.6692H266.093L322.675 194.157L249.55 322.631H103.007L29.8819 194.157L103.007 65.6827H137.85L174.961 0H65.8955Z" fill="url(#paint1_linear_3512_7023)"/>
</g>
<defs>
<linearGradient id="paint0_linear_3512_7023" x1="320.417" y1="-3.86173" x2="320.417" y2="384.452" gradientUnits="userSpaceOnUse">
<stop stop-color="#3C80B0"/>
<stop offset="0.963542" stop-color="#165578"/>
</linearGradient>
<linearGradient id="paint1_linear_3512_7023" x1="177.829" y1="-3.86173" x2="177.829" y2="384.452" gradientUnits="userSpaceOnUse">
<stop stop-color="#3C80B0"/>
<stop offset="0.963542" stop-color="#165578"/>
</linearGradient>
</defs>
</svg>
