<svg width="51" height="45" viewBox="0 0 51 45" fill="none" xmlns="http://www.w3.org/2000/svg">
<mask id="mask0_7_95" style="mask-type:luminance" maskUnits="userSpaceOnUse" x="0" y="0" width="51" height="32">
<path d="M0.794113 0.166664H50.8922V31.9444H0.794113V0.166664Z" fill="white"/>
</mask>
<g mask="url(#mask0_7_95)">
<mask id="mask1_7_95" style="mask-type:luminance" maskUnits="userSpaceOnUse" x="1" y="1" width="50" height="31">
<path d="M45.8041 8.52864L41.5155 1.01866H23.9253L19.5138 8.71484L15.1134 16.4167L18.5465 22.4201L19.6256 24.3047L23.9253 31.8147H41.5155L50.3106 16.4167L45.8041 8.52864ZM41.851 21.7374L38.8093 27.0638H26.6147L20.5314 16.411L23.5731 11.0903L26.6147 5.76389H38.7982L42.0747 11.4796L44.9039 16.4167L41.851 21.7431V21.7374ZM17.445 24.3329C17.1934 24.7786 16.8635 25.1736 16.4553 25.5291C15.3762 26.4826 13.9337 26.9566 12.1389 26.9566C9.56686 26.9566 7.00045 25.7491 4.42845 23.3286L1.17432 27.1766C4.31663 30.2574 7.98452 31.7977 12.178 31.7977C15.4713 31.7977 18.1327 30.8893 20.1624 29.0668L17.445 24.3329ZM19.0273 5.73568L21.7279 1.0243H4.04265L3.18718 15.8468L6.35186 17.9683C8.23613 17.0712 10.0813 16.6254 11.8761 16.6254C12.2954 16.6254 12.3737 16.6536 12.7539 16.6988L12.9216 16.411L15.3483 12.1623C14.5655 12.0269 13.738 11.9592 12.8601 11.9592C11.261 11.9592 9.67868 12.247 8.10753 12.8225L8.58279 5.73568H19.0273Z" fill="white"/>
</mask>
<g mask="url(#mask1_7_95)">
<path d="M1.17432 1.01866V31.8147H50.3106V1.01866H1.17432Z" fill="url(#paint0_linear_7_95)"/>
</g>
</g>
<mask id="mask2_7_95" style="mask-type:luminance" maskUnits="userSpaceOnUse" x="0" y="0" width="23" height="32">
<path d="M0.794113 0.166664H22.2647V31.9444H0.794113V0.166664Z" fill="white"/>
</mask>
<g mask="url(#mask2_7_95)">
<mask id="mask3_7_95" style="mask-type:luminance" maskUnits="userSpaceOnUse" x="1" y="1" width="21" height="31">
<path d="M17.445 24.3329C17.1934 24.773 16.8635 25.1736 16.4553 25.5291C15.3762 26.4826 13.9337 26.9566 12.1389 26.9566C9.56686 26.9566 7.00045 25.7491 4.42845 23.3229L1.17432 27.171C4.31663 30.2574 7.98452 31.7977 12.178 31.7977C15.4713 31.7977 18.1327 30.8893 20.1624 29.0668L17.445 24.3329ZM19.0273 5.73568L21.7279 1.02431H4.04265L3.18718 15.8468L6.35186 17.9683C8.23613 17.0712 10.0813 16.6254 11.8761 16.6254C12.2954 16.6254 12.3737 16.648 12.7539 16.6988L12.9216 16.411L15.3483 12.1567C14.5655 12.0213 13.738 11.9592 12.8601 11.9592C11.261 11.9592 9.67868 12.247 8.10753 12.8225L8.58279 5.73568H19.0273Z" fill="white"/>
</mask>
<g mask="url(#mask3_7_95)">
<path d="M1.17432 1.02431V31.7977H21.7279V1.02431H1.17432Z" fill="url(#paint1_linear_7_95)"/>
</g>
</g>
<path d="M28.3536 37.7674L28.3592 37.3668L30.5175 36.9944V37.378L28.3536 37.7674ZM28.3536 38.4952L28.3592 38.0946L30.5175 37.7222V38.1115L28.3536 38.4952Z" fill="#4E4D4D"/>
<path d="M29.6844 42.5126C29.6844 42.8681 29.7682 43.1276 29.9304 43.2969C30.0925 43.4661 30.3497 43.5564 30.6908 43.5564V44.4141C30.1037 44.4141 29.6452 44.2448 29.3097 43.9063C28.9799 43.5734 28.8121 43.105 28.8121 42.5126V39.0651H29.6844V42.5126Z" fill="#4E4D4D"/>
<path d="M30.3497 44.2956C30.2659 44.2109 30.2211 44.1094 30.2211 43.9852C30.2211 43.8555 30.2659 43.7539 30.3497 43.6749C30.4392 43.5903 30.551 43.5508 30.6908 43.5508H32.1334V44.4141H30.6908C30.551 44.4141 30.4392 44.3746 30.3497 44.2899V44.2956Z" fill="#4E4D4D"/>
<path d="M31.7923 44.2956C31.7084 44.2109 31.6637 44.1094 31.6637 43.9852C31.6637 43.8555 31.7084 43.7539 31.7923 43.6749C31.8817 43.5903 31.9936 43.5508 32.1334 43.5508H33.5759V44.4141H32.1334C31.9936 44.4141 31.8817 44.3746 31.7923 44.2899V44.2956Z" fill="#4E4D4D"/>
<path d="M33.2404 44.2956C33.151 44.2109 33.1118 44.1094 33.1118 43.9852C33.1118 43.8555 33.151 43.7539 33.2404 43.6749C33.3243 43.5903 33.4417 43.5508 33.5759 43.5508H35.024V44.4141H33.5759C33.4417 44.4141 33.3243 44.3746 33.2404 44.2899V44.2956Z" fill="#4E4D4D"/>
<path d="M34.683 44.2956C34.5935 44.2109 34.5544 44.1094 34.5544 43.9852C34.5544 43.8555 34.5935 43.7539 34.683 43.6749C34.7724 43.5903 34.8843 43.5508 35.0241 43.5508H36.4666V44.4141H35.0241C34.8843 44.4141 34.7724 44.3746 34.683 44.2899V44.2956Z" fill="#4E4D4D"/>
<path d="M39.0945 40.487C39.6201 40.487 40.0618 40.6732 40.4141 41.0569C40.7663 41.4349 40.9452 41.9032 40.9452 42.4618C40.9452 43.0599 40.7663 43.5339 40.4141 43.895C40.0562 44.2504 39.6313 44.431 39.1393 44.431C38.6081 44.431 38.1328 44.2279 37.7135 43.816C37.4395 44.2166 37.0257 44.4141 36.4666 44.4141C36.3324 44.4141 36.2206 44.3746 36.1311 44.2899C36.0417 44.2053 35.9969 44.0981 35.9969 43.974C35.9969 43.8442 36.0361 43.7426 36.1255 43.6693C36.215 43.5903 36.3268 43.5564 36.4666 43.5564C36.7853 43.5564 36.9922 43.4323 37.0928 43.184C37.1376 43.0825 37.1711 42.9922 37.1879 42.9076C37.2103 42.8229 37.2382 42.7101 37.2662 42.5634C37.2941 42.4167 37.3221 42.2813 37.3556 42.1571C37.4842 41.6211 37.6967 41.2092 37.9986 40.9214C38.295 40.6337 38.6584 40.487 39.0945 40.487ZM39.1169 43.5677C39.3853 43.5677 39.6145 43.4718 39.7934 43.2687C39.978 43.0712 40.073 42.8004 40.073 42.4618C40.073 42.1402 39.978 41.8806 39.7934 41.6775C39.6145 41.4688 39.3797 41.3672 39.0945 41.3672C38.8765 41.3672 38.692 41.4462 38.5522 41.5929C38.4068 41.7452 38.295 41.9766 38.2055 42.2925C38.1496 42.5013 38.0993 42.7383 38.049 42.9978C38.3677 43.3815 38.7199 43.5677 39.1169 43.5677Z" fill="#4E4D4D"/>
<path d="M42.8015 42.5126C42.8015 42.8681 42.8798 43.1276 43.0476 43.2969C43.2097 43.4718 43.4613 43.5564 43.8024 43.5564V44.4141C43.2153 44.4141 42.7568 44.2448 42.4269 43.9063C42.0915 43.5734 41.9293 43.105 41.9293 42.5126V39.0651H42.8015V42.5126Z" fill="#4E4D4D"/>
<path d="M43.4613 44.2956C43.3774 44.2109 43.3327 44.1094 43.3327 43.9852C43.3327 43.8555 43.3774 43.7539 43.4613 43.6749C43.5508 43.5903 43.6626 43.5508 43.8024 43.5508H45.2449V44.4141H43.8024C43.6626 44.4141 43.5508 44.3746 43.4613 44.2899V44.2956Z" fill="#4E4D4D"/>
<path d="M49.1477 43.5564V44.4141H45.2449C45.1163 44.4141 45.0045 44.3746 44.9151 44.2899C44.8256 44.2053 44.7753 44.1037 44.7753 43.9852C44.7753 43.8611 44.8256 43.7595 44.9151 43.6806C45.0045 43.5959 45.1163 43.5564 45.2449 43.5564H45.9271C45.586 43.3307 45.4127 42.964 45.4127 42.4562C45.4127 41.8637 45.614 41.3841 46.0221 41.023C46.4303 40.6619 46.9447 40.4813 47.5653 40.4813C47.9903 40.4813 48.4767 40.5885 49.0247 40.8086L48.7283 41.5872C48.2978 41.418 47.9232 41.3333 47.5933 41.3333C47.2075 41.3333 46.8944 41.4349 46.6484 41.6437C46.4079 41.8468 46.2849 42.1289 46.2849 42.4844C46.2849 42.8398 46.3912 43.122 46.6036 43.2969C46.8161 43.4661 47.146 43.5564 47.5877 43.5564H49.1477Z" fill="#4E4D4D"/>
<path d="M5.94208 42.5405V44.1204L6.68013 44.2332V44.4138H4.5107V44.2332L5.24875 44.1204V42.5631L3.59373 39.9225L3.07933 39.8322V39.6516H5.06983V39.8322L4.42124 39.9225L5.78552 42.1343L7.0827 39.9225L6.47884 39.8322V39.6516H7.99967V39.8322L7.48527 39.9225L5.94208 42.5405Z" fill="#4E4D4D"/>
<path d="M8.39876 44.2332L9.00262 44.1204V39.9225L8.39876 39.8322V39.6516H11.9325V40.7801H11.7088L11.597 40.0127C11.3286 39.9845 10.9484 39.9676 10.4564 39.9676H9.69594V41.8183H10.9708L11.0602 41.2541H11.3062V42.7211H11.0602L10.9708 42.1568H9.69594V44.0978H10.6129C11.2224 44.0978 11.6193 44.0752 11.7983 44.0301L11.9996 43.1499H12.2456L12.1785 44.4138H8.39876V44.2332Z" fill="#4E4D4D"/>
<path d="M14.2126 44.2332V44.4138H12.6694V44.2332L13.2061 44.1204L14.8164 39.6065H15.4874L17.1424 44.1204L17.7463 44.2332V44.4138H15.7558V44.2332L16.382 44.1204L15.9123 42.7436H14.056L13.5863 44.1204L14.2126 44.2332ZM14.973 40.103L14.1678 42.4277H15.8229L14.973 40.103Z" fill="#4E4D4D"/>
<path d="M19.3084 42.3148V44.1204L20.024 44.2332V44.4138H18.0559V44.2332L18.615 44.1204V39.9225L18.0112 39.8322V39.6516H20.0464C20.6391 39.6516 21.0808 39.7532 21.3659 39.945C21.6455 40.1425 21.7909 40.4641 21.7909 40.9155C21.7909 41.2315 21.7014 41.5136 21.5225 41.7506C21.3548 41.9763 21.1199 42.1343 20.8068 42.2245L22.104 44.1204L22.596 44.2332V44.4138H21.4778L20.1582 42.3148H19.3084ZM21.0752 40.9607C21.0752 40.5995 20.9857 40.3456 20.8068 40.1933C20.6391 40.0466 20.3427 39.9676 19.9122 39.9676H19.3084V41.9988H19.9122C20.3427 41.9988 20.6391 41.9255 20.8068 41.7732C20.9857 41.6095 21.0752 41.3387 21.0752 40.9607Z" fill="#4E4D4D"/>
<path d="M23.1116 43.1273H23.3353L23.4695 43.7818C23.5422 43.889 23.6819 43.985 23.8944 44.0752C24.1181 44.1542 24.3305 44.1881 24.543 44.1881C24.8673 44.1881 25.1245 44.1091 25.3034 43.9398C25.4823 43.7762 25.5718 43.5449 25.5718 43.2402C25.5718 43.0765 25.5327 42.9411 25.46 42.8339C25.3985 42.7154 25.309 42.6195 25.1916 42.5405C25.0686 42.4672 24.9344 42.3995 24.789 42.3374C24.6381 42.281 24.4871 42.2245 24.3417 42.1794C24.1908 42.123 24.0398 42.0609 23.8944 41.9989C23.7434 41.9255 23.6093 41.8409 23.4918 41.7506C23.3688 41.649 23.2738 41.5193 23.2011 41.3669C23.1396 41.2202 23.1116 41.0284 23.1116 40.8027C23.1116 40.4303 23.2458 40.1369 23.5142 39.9225C23.7938 39.6968 24.1908 39.5839 24.6996 39.5839C25.0686 39.5839 25.4823 39.6403 25.9296 39.7419V40.735H25.706L25.5718 40.1482C25.3314 39.9676 25.0406 39.8773 24.6996 39.8773C24.3864 39.8773 24.1404 39.945 23.9615 40.0805C23.7826 40.2159 23.6931 40.3964 23.6931 40.6221C23.6931 40.7745 23.7267 40.9042 23.805 41.0058C23.8776 41.113 23.9671 41.2033 24.0733 41.2766C24.1908 41.3387 24.3249 41.4008 24.4759 41.4572C24.6213 41.5023 24.7722 41.5588 24.9232 41.6152C25.0854 41.6772 25.2419 41.7449 25.3929 41.8183C25.5383 41.8804 25.6724 41.965 25.7955 42.0666C25.9129 42.1738 26.0023 42.3092 26.0638 42.4728C26.1365 42.6252 26.1757 42.8114 26.1757 43.037C26.1757 43.5054 26.0303 43.8665 25.7507 44.1204C25.4823 44.363 25.0798 44.4815 24.543 44.4815C24.2858 44.4815 24.0342 44.4589 23.7826 44.4138C23.5254 44.3686 23.3017 44.3122 23.1116 44.2332V43.1273Z" fill="#4E4D4D"/>
<defs>
<linearGradient id="paint0_linear_7_95" x1="25.7442" y1="31.813" x2="25.7442" y2="1.01702" gradientUnits="userSpaceOnUse">
<stop stop-color="#937240"/>
<stop offset="0.0078125" stop-color="#947340"/>
<stop offset="0.015625" stop-color="#957341"/>
<stop offset="0.0234375" stop-color="#957441"/>
<stop offset="0.03125" stop-color="#967542"/>
<stop offset="0.0390625" stop-color="#977643"/>
<stop offset="0.046875" stop-color="#987744"/>
<stop offset="0.0546875" stop-color="#997844"/>
<stop offset="0.0625" stop-color="#997945"/>
<stop offset="0.0703125" stop-color="#9A7A46"/>
<stop offset="0.078125" stop-color="#9B7B46"/>
<stop offset="0.0859375" stop-color="#9C7B47"/>
<stop offset="0.09375" stop-color="#9D7C48"/>
<stop offset="0.101562" stop-color="#9D7D49"/>
<stop offset="0.109375" stop-color="#9E7E49"/>
<stop offset="0.117187" stop-color="#9F7F4A"/>
<stop offset="0.125" stop-color="#A0804B"/>
<stop offset="0.132813" stop-color="#A1814B"/>
<stop offset="0.140625" stop-color="#A1824C"/>
<stop offset="0.148438" stop-color="#A2834D"/>
<stop offset="0.15625" stop-color="#A3834D"/>
<stop offset="0.164063" stop-color="#A4844E"/>
<stop offset="0.171875" stop-color="#A5854F"/>
<stop offset="0.179688" stop-color="#A58650"/>
<stop offset="0.1875" stop-color="#A68750"/>
<stop offset="0.195312" stop-color="#A78851"/>
<stop offset="0.203125" stop-color="#A88952"/>
<stop offset="0.210937" stop-color="#A98A52"/>
<stop offset="0.21875" stop-color="#A98B53"/>
<stop offset="0.226562" stop-color="#AA8B54"/>
<stop offset="0.234375" stop-color="#AB8C55"/>
<stop offset="0.242187" stop-color="#AC8D55"/>
<stop offset="0.25" stop-color="#AD8E56"/>
<stop offset="0.257813" stop-color="#AE8F57"/>
<stop offset="0.265625" stop-color="#AE9057"/>
<stop offset="0.273438" stop-color="#AF9158"/>
<stop offset="0.28125" stop-color="#B09259"/>
<stop offset="0.289062" stop-color="#B1935A"/>
<stop offset="0.296875" stop-color="#B2935A"/>
<stop offset="0.304687" stop-color="#B2945B"/>
<stop offset="0.3125" stop-color="#B3955C"/>
<stop offset="0.320312" stop-color="#B4965C"/>
<stop offset="0.328125" stop-color="#B5975D"/>
<stop offset="0.335937" stop-color="#B6985E"/>
<stop offset="0.34375" stop-color="#B6995F"/>
<stop offset="0.351563" stop-color="#B79A5F"/>
<stop offset="0.359375" stop-color="#B89B60"/>
<stop offset="0.367188" stop-color="#B99B61"/>
<stop offset="0.375" stop-color="#BA9C61"/>
<stop offset="0.382812" stop-color="#BA9D62"/>
<stop offset="0.390625" stop-color="#BB9E63"/>
<stop offset="0.398437" stop-color="#BC9F64"/>
<stop offset="0.40625" stop-color="#BDA064"/>
<stop offset="0.414063" stop-color="#BEA165"/>
<stop offset="0.421875" stop-color="#BEA266"/>
<stop offset="0.429688" stop-color="#BFA366"/>
<stop offset="0.4375" stop-color="#C0A367"/>
<stop offset="0.445313" stop-color="#C1A468"/>
<stop offset="0.453125" stop-color="#C2A569"/>
<stop offset="0.460938" stop-color="#C3A669"/>
<stop offset="0.46875" stop-color="#C3A76A"/>
<stop offset="0.476563" stop-color="#C4A86B"/>
<stop offset="0.484375" stop-color="#C5A96B"/>
<stop offset="0.492188" stop-color="#C6AA6C"/>
<stop offset="0.5" stop-color="#C7AB6D"/>
<stop offset="0.507812" stop-color="#C7AB6E"/>
<stop offset="0.515625" stop-color="#C8AC6E"/>
<stop offset="0.523438" stop-color="#C9AD6F"/>
<stop offset="0.53125" stop-color="#CAAE70"/>
<stop offset="0.539062" stop-color="#CBAF70"/>
<stop offset="0.546875" stop-color="#CBB071"/>
<stop offset="0.554687" stop-color="#CCB172"/>
<stop offset="0.5625" stop-color="#CDB273"/>
<stop offset="0.570312" stop-color="#CEB373"/>
<stop offset="0.578125" stop-color="#CFB374"/>
<stop offset="0.585937" stop-color="#CFB475"/>
<stop offset="0.59375" stop-color="#D0B575"/>
<stop offset="0.601562" stop-color="#D1B676"/>
<stop offset="0.609375" stop-color="#D2B777"/>
<stop offset="0.617187" stop-color="#D3B878"/>
<stop offset="0.625" stop-color="#D3B978"/>
<stop offset="0.632813" stop-color="#D4BA79"/>
<stop offset="0.640625" stop-color="#D5BB7A"/>
<stop offset="0.648438" stop-color="#D6BB7A"/>
<stop offset="0.65625" stop-color="#D7BC7B"/>
<stop offset="0.664063" stop-color="#D8BD7C"/>
<stop offset="0.671875" stop-color="#D8BE7C"/>
<stop offset="0.679688" stop-color="#D9BF7D"/>
<stop offset="0.6875" stop-color="#DAC07E"/>
<stop offset="0.75" stop-color="#DAC07E"/>
<stop offset="1" stop-color="#DAC07E"/>
</linearGradient>
<linearGradient id="paint1_linear_7_95" x1="-0.160407" y1="2.37301" x2="25.5997" y2="27.8898" gradientUnits="userSpaceOnUse">
<stop stop-color="#6C471D"/>
<stop offset="0.125" stop-color="#6C471D"/>
<stop offset="0.1875" stop-color="#6C471D"/>
<stop offset="0.203125" stop-color="#6C471D"/>
<stop offset="0.210937" stop-color="#6C471D"/>
<stop offset="0.214844" stop-color="#6D481E"/>
<stop offset="0.21875" stop-color="#6E491F"/>
<stop offset="0.222656" stop-color="#6E491F"/>
<stop offset="0.226562" stop-color="#6F4A20"/>
<stop offset="0.230469" stop-color="#704B20"/>
<stop offset="0.234375" stop-color="#704B21"/>
<stop offset="0.238281" stop-color="#714C21"/>
<stop offset="0.242188" stop-color="#714D22"/>
<stop offset="0.246094" stop-color="#724D22"/>
<stop offset="0.25" stop-color="#734E23"/>
<stop offset="0.253906" stop-color="#734F23"/>
<stop offset="0.257812" stop-color="#744F24"/>
<stop offset="0.261719" stop-color="#755025"/>
<stop offset="0.265625" stop-color="#755125"/>
<stop offset="0.269531" stop-color="#765226"/>
<stop offset="0.273438" stop-color="#765226"/>
<stop offset="0.277344" stop-color="#775327"/>
<stop offset="0.28125" stop-color="#785427"/>
<stop offset="0.285156" stop-color="#785428"/>
<stop offset="0.289062" stop-color="#795528"/>
<stop offset="0.292969" stop-color="#795629"/>
<stop offset="0.296875" stop-color="#7A5629"/>
<stop offset="0.300781" stop-color="#7B572A"/>
<stop offset="0.304688" stop-color="#7B582B"/>
<stop offset="0.308594" stop-color="#7C582B"/>
<stop offset="0.3125" stop-color="#7D592C"/>
<stop offset="0.316406" stop-color="#7D5A2C"/>
<stop offset="0.320312" stop-color="#7E5A2D"/>
<stop offset="0.324219" stop-color="#7E5B2D"/>
<stop offset="0.328125" stop-color="#7F5C2E"/>
<stop offset="0.332031" stop-color="#805C2E"/>
<stop offset="0.335938" stop-color="#805D2F"/>
<stop offset="0.339844" stop-color="#815E2F"/>
<stop offset="0.34375" stop-color="#815E30"/>
<stop offset="0.347656" stop-color="#825F31"/>
<stop offset="0.351562" stop-color="#836031"/>
<stop offset="0.355469" stop-color="#836132"/>
<stop offset="0.359375" stop-color="#846132"/>
<stop offset="0.363281" stop-color="#856233"/>
<stop offset="0.367187" stop-color="#856333"/>
<stop offset="0.371094" stop-color="#866334"/>
<stop offset="0.375" stop-color="#866434"/>
<stop offset="0.378906" stop-color="#876535"/>
<stop offset="0.382812" stop-color="#886535"/>
<stop offset="0.386719" stop-color="#886636"/>
<stop offset="0.390625" stop-color="#896737"/>
<stop offset="0.394531" stop-color="#8A6737"/>
<stop offset="0.398437" stop-color="#8A6838"/>
<stop offset="0.402344" stop-color="#8B6938"/>
<stop offset="0.40625" stop-color="#8B6939"/>
<stop offset="0.410156" stop-color="#8C6A39"/>
<stop offset="0.414062" stop-color="#8D6B3A"/>
<stop offset="0.417969" stop-color="#8D6B3A"/>
<stop offset="0.421875" stop-color="#8E6C3B"/>
<stop offset="0.425781" stop-color="#8E6D3C"/>
<stop offset="0.429688" stop-color="#8F6D3C"/>
<stop offset="0.433594" stop-color="#906E3D"/>
<stop offset="0.4375" stop-color="#906F3D"/>
<stop offset="0.441406" stop-color="#91703E"/>
<stop offset="0.445312" stop-color="#92703E"/>
<stop offset="0.449219" stop-color="#92713F"/>
<stop offset="0.453125" stop-color="#93723F"/>
<stop offset="0.457031" stop-color="#937240"/>
<stop offset="0.460937" stop-color="#947340"/>
<stop offset="0.464844" stop-color="#957441"/>
<stop offset="0.46875" stop-color="#957442"/>
<stop offset="0.472656" stop-color="#967542"/>
<stop offset="0.476562" stop-color="#967643"/>
<stop offset="0.480469" stop-color="#977643"/>
<stop offset="0.484375" stop-color="#987744"/>
<stop offset="0.488281" stop-color="#987844"/>
<stop offset="0.492187" stop-color="#997845"/>
<stop offset="0.496094" stop-color="#9A7945"/>
<stop offset="0.5" stop-color="#9A7A46"/>
<stop offset="0.503906" stop-color="#9B7A46"/>
<stop offset="0.507812" stop-color="#9B7B47"/>
<stop offset="0.511719" stop-color="#9C7C48"/>
<stop offset="0.515625" stop-color="#9D7C48"/>
<stop offset="0.519531" stop-color="#9D7D49"/>
<stop offset="0.523438" stop-color="#9E7E49"/>
<stop offset="0.527344" stop-color="#9F7E4A"/>
<stop offset="0.53125" stop-color="#9F7F4A"/>
<stop offset="0.535156" stop-color="#A0804B"/>
<stop offset="0.539062" stop-color="#A0804B"/>
<stop offset="0.542969" stop-color="#A1814C"/>
<stop offset="0.546875" stop-color="#A1824C"/>
<stop offset="0.550781" stop-color="#A2824D"/>
<stop offset="0.554688" stop-color="#A3834D"/>
<stop offset="0.558594" stop-color="#A3844E"/>
<stop offset="0.5625" stop-color="#A4844E"/>
<stop offset="0.566406" stop-color="#A4854F"/>
<stop offset="0.570312" stop-color="#A5854F"/>
<stop offset="0.574219" stop-color="#A58650"/>
<stop offset="0.578125" stop-color="#A68750"/>
<stop offset="0.582031" stop-color="#A78751"/>
<stop offset="0.585938" stop-color="#A78851"/>
<stop offset="0.589844" stop-color="#A88852"/>
<stop offset="0.59375" stop-color="#A88952"/>
<stop offset="0.597656" stop-color="#A98A53"/>
<stop offset="0.601562" stop-color="#A98A53"/>
<stop offset="0.605469" stop-color="#AA8B54"/>
<stop offset="0.609375" stop-color="#AA8C54"/>
<stop offset="0.613281" stop-color="#AB8C54"/>
<stop offset="0.617188" stop-color="#AC8D55"/>
<stop offset="0.621094" stop-color="#AC8D55"/>
<stop offset="0.625" stop-color="#AD8E56"/>
<stop offset="0.628906" stop-color="#AD8F56"/>
<stop offset="0.632812" stop-color="#AE8F57"/>
<stop offset="0.636719" stop-color="#AE9057"/>
<stop offset="0.640625" stop-color="#AF9058"/>
<stop offset="0.644531" stop-color="#AF9158"/>
<stop offset="0.648438" stop-color="#B09259"/>
<stop offset="0.652344" stop-color="#B19259"/>
<stop offset="0.65625" stop-color="#B1935A"/>
<stop offset="0.660156" stop-color="#B2935A"/>
<stop offset="0.664062" stop-color="#B2945B"/>
<stop offset="0.667969" stop-color="#B3955B"/>
<stop offset="0.671875" stop-color="#B3955C"/>
<stop offset="0.675781" stop-color="#B4965C"/>
<stop offset="0.679687" stop-color="#B5975D"/>
<stop offset="0.683594" stop-color="#B5975D"/>
<stop offset="0.6875" stop-color="#B6985E"/>
<stop offset="0.691406" stop-color="#B6985E"/>
<stop offset="0.695312" stop-color="#B7995F"/>
<stop offset="0.699219" stop-color="#B79A5F"/>
<stop offset="0.703125" stop-color="#B89A60"/>
<stop offset="0.707031" stop-color="#B89B60"/>
<stop offset="0.710938" stop-color="#B99B60"/>
<stop offset="0.714844" stop-color="#BA9C61"/>
<stop offset="0.71875" stop-color="#BA9D61"/>
<stop offset="0.722656" stop-color="#BB9D62"/>
<stop offset="0.726562" stop-color="#BB9E62"/>
<stop offset="0.730469" stop-color="#BC9F63"/>
<stop offset="0.734375" stop-color="#BC9F63"/>
<stop offset="0.738281" stop-color="#BDA064"/>
<stop offset="0.742188" stop-color="#BEA064"/>
<stop offset="0.746094" stop-color="#BEA165"/>
<stop offset="0.75" stop-color="#BFA265"/>
<stop offset="0.753906" stop-color="#BFA266"/>
<stop offset="0.757812" stop-color="#C0A366"/>
<stop offset="0.761719" stop-color="#C0A367"/>
<stop offset="0.765625" stop-color="#C1A467"/>
<stop offset="0.769531" stop-color="#C1A568"/>
<stop offset="0.773437" stop-color="#C2A568"/>
<stop offset="0.777344" stop-color="#C3A669"/>
<stop offset="0.78125" stop-color="#C3A769"/>
<stop offset="0.785156" stop-color="#C4A76A"/>
<stop offset="0.789062" stop-color="#C4A86A"/>
<stop offset="0.792969" stop-color="#C5A86B"/>
<stop offset="0.796875" stop-color="#C5A96B"/>
<stop offset="0.800781" stop-color="#C6AA6C"/>
<stop offset="0.804688" stop-color="#C7AA6C"/>
<stop offset="0.808594" stop-color="#C7AB6C"/>
<stop offset="0.8125" stop-color="#C8AB6D"/>
<stop offset="0.816406" stop-color="#C8AC6D"/>
<stop offset="0.820313" stop-color="#C9AD6E"/>
<stop offset="0.824219" stop-color="#C9AD6E"/>
<stop offset="0.828125" stop-color="#CAAE6F"/>
<stop offset="0.835938" stop-color="#CAAE6F"/>
<stop offset="0.84375" stop-color="#CBAF70"/>
<stop offset="0.851562" stop-color="#CCB071"/>
<stop offset="0.859375" stop-color="#CDB172"/>
<stop offset="0.867188" stop-color="#CEB272"/>
<stop offset="0.875" stop-color="#CEB373"/>
<stop offset="0.882812" stop-color="#CFB474"/>
<stop offset="0.890625" stop-color="#D0B575"/>
<stop offset="0.898438" stop-color="#D1B675"/>
<stop offset="0.90625" stop-color="#D2B776"/>
<stop offset="0.914062" stop-color="#D3B877"/>
<stop offset="0.921875" stop-color="#D3B978"/>
<stop offset="0.929688" stop-color="#D4BA79"/>
<stop offset="0.9375" stop-color="#D5BA79"/>
<stop offset="0.945312" stop-color="#D6BB7A"/>
<stop offset="0.953125" stop-color="#D7BC7B"/>
<stop offset="0.960938" stop-color="#D8BD7C"/>
<stop offset="0.96875" stop-color="#D8BE7C"/>
<stop offset="0.976562" stop-color="#D9BF7D"/>
<stop offset="0.984375" stop-color="#DAC07E"/>
<stop offset="1" stop-color="#DAC07E"/>
</linearGradient>
</defs>
</svg>
