<svg width="86" height="32" viewBox="0 0 86 32" fill="none" xmlns="http://www.w3.org/2000/svg">
<path d="M19.5515 16.3385C17.8909 14.9392 15.3692 14.1211 11.8243 13.839C9.34181 13.6584 7.6141 13.2183 6.69712 12.5299C5.84165 11.8867 5.4279 10.967 5.4279 9.72005C5.4279 7.90885 5.98144 6.70139 7.12766 6.02995C8.38011 5.2908 10.2923 4.9184 12.814 4.9184C13.9714 4.9184 15.2406 4.94662 16.5602 5.21745C19.0595 5.72526 20.038 6.26128 20.038 6.26128L21.324 2.19314L20.6362 1.98437C18.1593 1.24523 15.5146 0.867188 12.7749 0.867188C4.9135 0.867188 0.932495 3.87456 0.932495 9.79904C0.932495 12.5582 1.79356 14.5894 3.4989 15.842C5.14274 17.0438 7.68678 17.7548 11.2876 18.0087C13.6918 18.1836 15.3804 18.697 16.3086 19.5378C17.2088 20.3559 17.6505 21.3997 17.6505 22.7313C17.6505 24.5087 17.069 25.7049 15.8724 26.3932C14.5641 27.1493 12.6071 27.5273 10.0631 27.5273C7.31217 27.5273 5.01973 27.1944 3.24729 26.5286L2.54279 26.2635L1.3127 30.247L1.98925 30.4614C4.41028 31.2344 7.14443 31.6237 10.0966 31.6237C18.0642 31.6237 22.1012 28.6163 22.1012 22.6918C22.1012 19.8989 21.2401 17.7661 19.5515 16.3385Z" fill="#4E4D4D"/>
<path d="M27.3011 1.55078H31.5952V31.0603H27.3011V1.55078Z" fill="#4E4D4D"/>
<path d="M60.3121 9.28082C59.7586 7.33984 58.8696 5.77691 57.6618 4.64279C56.4653 3.51996 55.0283 2.71875 53.3789 2.24479C51.7798 1.78212 49.7949 1.55078 47.4801 1.55078H38.1929V31.0603H47.4801C52.1768 31.0603 55.6602 29.9375 57.8408 27.7257C60.0158 25.5139 61.1173 21.6545 61.1173 16.2435C61.1173 13.5069 60.8489 11.1654 60.3121 9.28082ZM54.6314 24.9948C53.3286 26.4618 50.9243 27.2122 47.4857 27.2122H42.4871V5.40451H47.4857C49.3308 5.40451 50.8181 5.53993 51.9028 5.80512C52.9148 6.05903 53.8094 6.5612 54.5643 7.31163C55.3135 8.05642 55.8447 9.12283 56.1466 10.4826C56.4653 11.9327 56.6274 13.8681 56.6274 16.2491C56.6274 20.5543 55.9565 23.4996 54.6314 24.9948Z" fill="#4E4D4D"/>
<path d="M85.322 5.40451V1.55078H66.2389V31.0603H70.533V18.6133H81.984V14.7652H70.533V5.40451H85.322Z" fill="#4E4D4D"/>
</svg>
