<svg width="136" height="12" viewBox="0 0 136 12" fill="none" xmlns="http://www.w3.org/2000/svg">
<path d="M5.57245 4.13585C5.82966 3.96094 6.17072 3.87066 6.59007 3.87066C7.04856 3.87066 7.54618 3.97786 8.08295 4.18663L8.1109 4.19792L8.41843 3.26129L8.39606 3.25C7.78661 3.00738 7.18834 2.88325 6.62362 2.88325C5.90793 2.88325 5.31526 3.06944 4.85677 3.42491C4.39828 3.79167 4.16345 4.25998 4.16345 4.82422C4.16345 5.53516 4.49333 6.07682 5.14752 6.43229C5.36558 6.55078 5.62837 6.65234 5.91912 6.73134C6.20986 6.81033 6.45029 6.86675 6.6348 6.90625C6.81372 6.94011 6.96469 7.01345 7.09329 7.12066C7.22189 7.22222 7.2778 7.36328 7.2778 7.54384C7.2778 8.05729 6.76899 8.32248 5.76815 8.32248H4.96859C3.60432 8.32248 2.94454 7.77517 2.94454 6.6467C2.94454 6.34766 2.98927 6.0204 3.07314 5.68186L3.07874 5.64236H2.12821L2.12262 5.66493C1.99962 6.09375 1.93811 6.5 1.93811 6.87804C1.93811 7.69054 2.22327 8.3112 2.78799 8.71745C3.35271 9.1237 4.08517 9.33247 4.96859 9.33247H5.76815C6.5733 9.33247 7.20512 9.17448 7.64124 8.85851C8.08854 8.54253 8.31219 8.10243 8.31219 7.54384C8.31219 7.273 8.26187 7.03602 8.16682 6.8329C8.07177 6.62413 7.93198 6.4605 7.74747 6.33073C7.56855 6.2066 7.39522 6.10503 7.23307 6.03733C7.07651 5.96962 6.88082 5.90755 6.64598 5.84549C6.05331 5.6875 5.65632 5.52951 5.46622 5.38846C5.28171 5.2474 5.19225 5.0612 5.19225 4.82422C5.19225 4.53646 5.32085 4.30512 5.57245 4.13021V4.13585Z" fill="#4E4D4D"/>
<path d="M4.37594 9.98133C4.21938 9.98133 4.0796 10.0378 3.96218 10.1506C3.85035 10.2634 3.78885 10.4045 3.78885 10.5681C3.78885 10.7318 3.85035 10.8785 3.96218 10.9913C4.0796 11.1042 4.21938 11.1606 4.37594 11.1606C4.53249 11.1606 4.67227 11.1042 4.7841 10.9913C4.90152 10.8728 4.95743 10.7318 4.95743 10.5681C4.95743 10.4045 4.90152 10.2634 4.7841 10.1506C4.67227 10.0378 4.53249 9.98133 4.37594 9.98133Z" fill="#4E4D4D"/>
<path d="M5.82405 9.98133C5.66749 9.98133 5.5333 10.0378 5.41588 10.1506C5.30406 10.2634 5.24255 10.4045 5.24255 10.5681C5.24255 10.7318 5.30406 10.8785 5.41588 10.9913C5.5333 11.1042 5.66749 11.1606 5.82405 11.1606C5.9862 11.1606 6.12039 11.1042 6.2378 10.9913C6.34963 10.8785 6.41114 10.7318 6.41114 10.5681C6.41114 10.4045 6.34963 10.2634 6.2378 10.1506C6.12039 10.0378 5.9862 9.98133 5.82405 9.98133Z" fill="#4E4D4D"/>
<path d="M12.679 3.51519C12.1311 3.09201 11.3651 2.87761 10.4145 2.87761H9.90013V3.92144H10.3978C11.119 3.92144 11.6502 4.03429 11.9857 4.25998C12.3156 4.48568 12.4777 4.82986 12.4777 5.28125C12.4777 5.65365 12.3938 5.91884 12.2149 6.07118C12.0416 6.22353 11.7341 6.30252 11.3091 6.30252H9.44724V7.31814H11.3147C12.0248 7.31814 12.5728 7.14323 12.9474 6.7934C13.322 6.44358 13.5121 5.92448 13.5121 5.25868C13.5121 4.52517 13.2325 3.93837 12.679 3.51519Z" fill="#4E4D4D"/>
<path d="M35.4468 1.2921V5.1684C35.4468 5.55772 35.3573 5.85112 35.184 6.03168C35.0051 6.21223 34.7255 6.30251 34.3453 6.30251C33.9371 6.30251 33.6296 6.21223 33.4507 6.03732C33.2662 5.85677 33.1767 5.56336 33.1767 5.1684V2.8776H32.1423V5.1684C32.1423 5.93012 31.8907 6.30251 31.3651 6.30251C30.7948 6.30251 30.5152 5.93012 30.5152 5.1684V3.14279H29.4808V5.1684C29.4808 5.93012 29.2292 6.30251 28.7037 6.30251C28.1333 6.30251 27.8538 5.93012 27.8538 5.1684V3.14279H26.825V5.1684C26.825 5.55772 26.7355 5.84548 26.5566 6.02604C26.3833 6.21223 26.1037 6.30251 25.7235 6.30251H24.2138L25.1308 5.4618L25.142 5.45616L25.1476 5.1684C25.1476 4.51388 24.9239 3.96658 24.4766 3.53211C24.0349 3.09765 23.4758 2.8776 22.8216 2.8776C22.1674 2.8776 21.6195 3.09765 21.1778 3.53211C20.7305 3.96658 20.5068 4.51388 20.5068 5.1684V5.45616L21.435 6.30251H18.7232V5.33767C18.7232 4.59288 18.5275 3.98914 18.1361 3.54904C17.7503 3.10329 17.2471 2.87196 16.6432 2.87196C16.0002 2.87196 15.4802 3.10329 15.1 3.54904C14.7198 4.00043 14.5297 4.53081 14.5297 5.13454C14.5297 5.73263 14.7142 6.24044 15.0833 6.66927C15.4523 7.09808 15.9723 7.31814 16.632 7.31814H17.6329C17.454 7.95572 16.9452 8.27734 16.1288 8.27734C15.8996 8.27734 15.6592 8.25477 15.4187 8.22091L15.3852 8.21527V9.21397L15.4076 9.21961C15.7486 9.28732 16.0617 9.31553 16.3469 9.31553C17.0011 9.31553 17.5378 9.14062 17.9404 8.79644C18.343 8.45789 18.589 7.96137 18.6841 7.31814H21.9997C22.1562 7.31814 22.296 7.28428 22.4246 7.21093C22.5476 7.14322 22.6315 7.08116 22.6762 7.02473C22.7154 6.9796 22.7657 6.91189 22.8216 6.83289C22.8831 6.91753 22.9334 6.9796 22.9726 7.02473C23.0173 7.08116 23.1012 7.14322 23.2242 7.21093C23.3472 7.28428 23.487 7.31814 23.6435 7.31814H25.7235C26.4615 7.31814 27.0319 7.07552 27.4121 6.6072C27.6749 7.07552 28.111 7.31814 28.7037 7.31814C29.2963 7.31814 29.766 7.09244 30.0903 6.6467C30.3587 7.09244 30.7892 7.31814 31.3651 7.31814C31.941 7.31814 32.4442 7.08116 32.7685 6.62413C33.0761 7.08116 33.6072 7.31814 34.3509 7.31814C35.0106 7.31814 35.5362 7.12065 35.9108 6.74262C36.2911 6.36458 36.4812 5.82855 36.4812 5.16276V1.28645H35.4468V1.2921ZM17.7056 6.30251H16.6432C16.2966 6.30251 16.0226 6.18402 15.8213 5.94704C15.6144 5.71006 15.5138 5.42795 15.5138 5.11197C15.5138 4.796 15.6144 4.51388 15.8157 4.2769C16.017 4.03992 16.291 3.92144 16.6265 3.92144C16.934 3.92144 17.1912 4.03993 17.3981 4.28255C17.5993 4.51953 17.7056 4.86935 17.7056 5.3151V6.30251ZM22.8216 6.34201L21.53 5.14019C21.5524 4.77907 21.6866 4.48567 21.9214 4.25998C22.1618 4.03428 22.4638 3.92144 22.8216 3.92144C23.1795 3.92144 23.4814 4.03428 23.7218 4.25998C23.9566 4.48567 24.0908 4.77907 24.1132 5.14019L22.8216 6.34201Z" fill="#4E4D4D"/>
<path d="M37.5211 1.2921H38.5499V7.31814H37.5211V1.2921Z" fill="#4E4D4D"/>
<path d="M44.2531 2.16666C44.4152 2.16666 44.555 2.11024 44.6668 1.99175C44.7786 1.8789 44.8346 1.73785 44.8346 1.57986C44.8346 1.41623 44.7786 1.28081 44.6668 1.16232C44.555 1.04948 44.4152 0.987411 44.2531 0.987411C44.0909 0.987411 43.9511 1.04948 43.8393 1.16232C43.7275 1.28081 43.6716 1.42187 43.6716 1.57986C43.6716 1.73785 43.7275 1.8789 43.8393 1.99175C43.9511 2.11024 44.0909 2.16666 44.2531 2.16666Z" fill="#4E4D4D"/>
<path d="M42.8049 2.16666C42.9671 2.16666 43.1069 2.11024 43.2187 1.99175C43.3305 1.8789 43.3864 1.73785 43.3864 1.57986C43.3864 1.42187 43.3305 1.28081 43.2187 1.16232C43.1069 1.04948 42.9671 0.987411 42.8049 0.987411C42.6372 0.987411 42.4974 1.04948 42.3856 1.16232C42.2737 1.28081 42.2178 1.42187 42.2178 1.57986C42.2178 1.73785 42.2737 1.8789 42.3856 1.99175C42.503 2.11024 42.6428 2.16666 42.8049 2.16666Z" fill="#4E4D4D"/>
<path d="M47.3898 7.98959C47.2332 7.98959 47.0934 8.04601 46.9816 8.1645C46.8642 8.27735 46.8027 8.41841 46.8027 8.57639C46.8027 8.73438 46.8642 8.87544 46.9816 8.98828C47.0934 9.10677 47.2332 9.1632 47.3898 9.1632C47.5463 9.1632 47.6861 9.10677 47.7979 8.98828C47.9154 8.87544 47.9713 8.73438 47.9713 8.57639C47.9713 8.41841 47.9154 8.27735 47.7979 8.1645C47.6861 8.04601 47.5463 7.98959 47.3898 7.98959Z" fill="#4E4D4D"/>
<path d="M48.8379 7.98959C48.6814 7.98959 48.5416 8.04601 48.4298 8.1645C48.3123 8.27735 48.2564 8.41841 48.2564 8.57639C48.2564 8.73438 48.3123 8.87544 48.4298 8.98828C48.5416 9.10677 48.6814 9.1632 48.8379 9.1632C48.9945 9.1632 49.1343 9.10677 49.2517 8.98828C49.3635 8.87544 49.425 8.73438 49.425 8.57639C49.425 8.41841 49.3635 8.27735 49.2517 8.1645C49.1343 8.04601 48.9945 7.98959 48.8379 7.98959Z" fill="#4E4D4D"/>
<path d="M52.4163 6.30252C51.9355 6.30252 51.5721 6.2066 51.3372 6.0204C51.1136 5.8342 50.9962 5.53516 50.9962 5.13455C50.9962 4.73394 51.1304 4.44054 51.3931 4.21485C51.6559 3.98915 52.0026 3.8763 52.4275 3.8763C52.7854 3.8763 53.2103 3.97222 53.68 4.15842L53.7079 4.16971L54.0602 3.25L54.0322 3.23872C53.4228 2.99045 52.8748 2.86632 52.394 2.86632C51.6951 2.86632 51.1136 3.07509 50.6551 3.48134C50.1966 3.88759 49.9618 4.4349 49.9618 5.1007C49.9618 5.64236 50.1351 6.04297 50.4762 6.30252H49.8052C49.3915 6.30252 49.0895 6.21224 48.905 6.03169C48.7261 5.85677 48.6366 5.56337 48.6366 5.1684V3.4362H47.6022V5.1684C47.6022 5.55773 47.5128 5.84549 47.3339 6.02604C47.1605 6.2066 46.881 6.29688 46.5008 6.29688C46.1261 6.29688 45.8466 6.2066 45.6732 6.02604C45.4999 5.84549 45.4105 5.55773 45.4105 5.1684V2.51085H44.3817V2.92839C44.1748 2.90582 43.9959 2.89453 43.8449 2.89453C43.0789 2.89453 42.4415 3.09202 41.9494 3.49262C41.4518 3.89323 41.2002 4.46875 41.2002 5.20226C41.2002 5.73264 41.3735 6.19531 41.7146 6.579C42.0501 6.96267 42.503 7.15452 43.0453 7.15452C43.7834 7.15452 44.2922 6.82162 44.5606 6.17275C44.7059 6.52257 44.9464 6.80469 45.2651 7.00217C45.6061 7.21658 46.0199 7.32379 46.5008 7.32379C47.2556 7.32379 47.8259 7.07552 48.2005 6.59592C48.5024 7.07552 49.0448 7.32379 49.8052 7.32379H54.1832V6.30252H52.4163ZM44.3761 4.67188C44.3761 5.11762 44.2698 5.48438 44.0574 5.74957C43.8449 6.0204 43.5597 6.15582 43.2075 6.15582C42.9 6.15582 42.6595 6.0599 42.4862 5.8737C42.3073 5.68186 42.2178 5.45052 42.2178 5.17969C42.2178 4.77344 42.3744 4.44618 42.6763 4.22049C42.9838 3.98915 43.3864 3.87066 43.8673 3.87066C44.0294 3.87066 44.2027 3.88195 44.3761 3.9158V4.67188Z" fill="#4E4D4D"/>
<path d="M59.864 2.85503C60.0205 2.85503 60.1603 2.79297 60.2721 2.68012C60.3896 2.56163 60.4455 2.42057 60.4455 2.26259C60.4455 2.1046 60.3896 1.96354 60.2721 1.85069C60.1603 1.73221 60.0205 1.67578 59.864 1.67578C59.7074 1.67578 59.5676 1.73221 59.4502 1.85069C59.3384 1.96354 59.2769 2.1046 59.2769 2.26259C59.2769 2.42057 59.3384 2.56163 59.4502 2.68012C59.5676 2.79297 59.7074 2.85503 59.864 2.85503Z" fill="#4E4D4D"/>
<path d="M70.3924 1.2921V5.1684C70.3924 5.55772 70.3029 5.85112 70.1296 6.03168C69.9507 6.21223 69.6711 6.30251 69.2909 6.30251C68.9163 6.30251 68.6255 6.22352 68.441 6.07117C68.2621 5.91883 68.1559 5.67621 68.1279 5.34331V5.24739C68.1279 4.57595 67.8707 4.00607 67.3619 3.56032C66.8531 3.10894 66.2269 2.88324 65.5056 2.88324C64.9297 2.88324 64.4265 3.01302 64.0071 3.26692C63.6213 3.49826 63.3138 3.83116 63.0901 4.24869V2.8776H62.0669V6.30251H61.5581C61.1444 6.30251 60.8368 6.21223 60.6579 6.03168C60.479 5.85677 60.384 5.56336 60.384 5.1684V3.43619H59.3496V5.1684C59.3496 5.55772 59.2601 5.84548 59.0868 6.02604C58.9078 6.20659 58.6283 6.29687 58.2537 6.29687H57.3535C56.9789 6.29687 56.6993 6.20659 56.526 6.02604C56.347 5.83984 56.2632 5.55208 56.2632 5.1684V1.28645H55.2288V5.1684C55.2288 5.82855 55.4189 6.36458 55.7935 6.74262C56.1681 7.1263 56.6881 7.31814 57.3479 7.31814H58.2481C59.0029 7.31814 59.5732 7.07552 59.9478 6.59027C60.2498 7.07552 60.7921 7.31814 61.5525 7.31814H65.9976C66.7413 7.31814 67.3172 7.08116 67.703 6.6072C67.9993 7.08116 68.5361 7.31814 69.2909 7.31814C69.9507 7.31814 70.4762 7.1263 70.8565 6.74262C71.2311 6.36458 71.4268 5.83419 71.4268 5.1684V1.28645H70.3924V1.2921ZM66.8307 6.04296C66.6574 6.21788 66.3722 6.30251 65.9976 6.30251H63.0846V6.1276C63.1069 5.51822 63.3529 4.99348 63.8282 4.56466C64.3035 4.14149 64.8682 3.92708 65.5056 3.92708C65.9697 3.92708 66.3555 4.05121 66.6518 4.29383C66.9481 4.53645 67.0991 4.85807 67.0991 5.25303C67.0991 5.60286 67.0096 5.87369 66.8307 6.04296Z" fill="#4E4D4D"/>
<path d="M72.4668 1.2921H73.4956V7.31814H72.4668V1.2921Z" fill="#4E4D4D"/>
<path d="M79.1987 2.16666C79.3608 2.16666 79.5006 2.11024 79.6124 1.99175C79.7243 1.8789 79.7802 1.73785 79.7802 1.57986C79.7802 1.41623 79.7243 1.28081 79.6124 1.16232C79.5006 1.04948 79.3608 0.987411 79.1987 0.987411C79.0365 0.987411 78.8968 1.04948 78.7849 1.16232C78.6731 1.28081 78.6172 1.42187 78.6172 1.57986C78.6172 1.73785 78.6731 1.8789 78.7849 1.99175C78.8968 2.11024 79.0365 2.16666 79.1987 2.16666Z" fill="#4E4D4D"/>
<path d="M77.7505 2.16666C77.9127 2.16666 78.0525 2.11024 78.1643 1.99175C78.2761 1.8789 78.332 1.73785 78.332 1.57986C78.332 1.42187 78.2761 1.28081 78.1643 1.16232C78.0525 1.04948 77.9127 0.987411 77.7505 0.987411C77.5828 0.987411 77.443 1.04948 77.3312 1.16232C77.2193 1.28081 77.1634 1.42187 77.1634 1.57986C77.1634 1.73785 77.2193 1.8789 77.3312 1.99175C77.443 2.11024 77.5884 2.16666 77.7505 2.16666Z" fill="#4E4D4D"/>
<path d="M82.3354 7.98959C82.1789 7.98959 82.0391 8.04601 81.9217 8.1645C81.8098 8.27735 81.7483 8.41841 81.7483 8.57639C81.7483 8.73438 81.8098 8.87544 81.9217 8.98828C82.0391 9.10677 82.1789 9.1632 82.3354 9.1632C82.492 9.1632 82.6317 9.10677 82.7436 8.98828C82.861 8.87544 82.9169 8.73438 82.9169 8.57639C82.9169 8.41841 82.861 8.27735 82.7436 8.1645C82.6317 8.04601 82.492 7.98959 82.3354 7.98959Z" fill="#4E4D4D"/>
<path d="M83.7836 7.98959C83.627 7.98959 83.4872 8.04601 83.3754 8.1645C83.258 8.27735 83.2021 8.41841 83.2021 8.57639C83.2021 8.73438 83.258 8.87544 83.3754 8.98828C83.4872 9.10677 83.627 9.1632 83.7836 9.1632C83.9401 9.1632 84.0799 9.10677 84.1973 8.98828C84.3091 8.87544 84.3706 8.73438 84.3706 8.57639C84.3706 8.41841 84.3091 8.27735 84.1973 8.1645C84.0799 8.04601 83.9401 7.98959 83.7836 7.98959Z" fill="#4E4D4D"/>
<path d="M93.2664 2.85503C93.4229 2.85503 93.5627 2.79297 93.6745 2.68012C93.792 2.56163 93.8479 2.42057 93.8479 2.26259C93.8479 2.1046 93.792 1.96354 93.6745 1.85069C93.5627 1.73221 93.4229 1.67578 93.2664 1.67578C93.1098 1.67578 92.97 1.73221 92.8526 1.85069C92.7408 1.96354 92.6793 2.1046 92.6793 2.26259C92.6793 2.42057 92.7408 2.56163 92.8526 2.68012C92.97 2.79297 93.1098 2.85503 93.2664 2.85503Z" fill="#4E4D4D"/>
<path d="M97.3201 2.84375C97.4822 2.84375 97.622 2.78733 97.7338 2.67448C97.8457 2.56163 97.9016 2.42057 97.9016 2.25695C97.9016 2.08767 97.8457 1.94662 97.7338 1.83377C97.622 1.72092 97.4822 1.6645 97.3201 1.6645C97.1579 1.6645 97.0181 1.72092 96.9063 1.83377C96.7889 1.94662 96.733 2.09332 96.733 2.25695C96.733 2.42057 96.7945 2.56163 96.9063 2.67448C97.0181 2.78733 97.1579 2.84375 97.3201 2.84375Z" fill="#4E4D4D"/>
<path d="M95.8663 2.84375C96.0285 2.84375 96.1683 2.78733 96.2801 2.67448C96.3919 2.56163 96.4534 2.42057 96.4534 2.25695C96.4534 2.08767 96.3919 1.94662 96.2801 1.83377C96.1683 1.72092 96.0285 1.6645 95.8663 1.6645C95.7042 1.6645 95.5644 1.72092 95.4526 1.83377C95.3408 1.94662 95.2849 2.09332 95.2849 2.25695C95.2849 2.42057 95.3408 2.56163 95.4526 2.67448C95.5644 2.78733 95.7042 2.84375 95.8663 2.84375Z" fill="#4E4D4D"/>
<path d="M99.3609 1.2921V5.1684C99.3609 5.55772 99.2715 5.85112 99.0981 6.03168C98.9192 6.21223 98.6396 6.30251 98.265 6.30251C97.8457 6.30251 97.5437 6.21223 97.3648 6.03732C97.1803 5.85677 97.0908 5.56336 97.0908 5.1684V3.43619H96.0565V5.1684C96.0565 5.55772 95.967 5.84548 95.7937 6.02604C95.6147 6.21223 95.3352 6.30251 94.9606 6.30251C94.5412 6.30251 94.2393 6.21223 94.0604 6.03168C93.8758 5.85677 93.7864 5.56336 93.7864 5.1684V3.43619H92.752V5.1684C92.752 5.55772 92.6625 5.84548 92.4892 6.02604C92.3103 6.20659 92.0307 6.29687 91.6561 6.29687C91.2759 6.29687 90.9684 6.21788 90.7895 6.05425C90.6049 5.89626 90.5043 5.64236 90.4819 5.28689C90.4875 5.24739 90.4875 5.18533 90.4875 5.10633C90.4875 4.48003 90.2862 3.94401 89.8893 3.51519C89.4923 3.09201 88.9891 2.87196 88.3964 2.87196C87.9099 2.87196 87.4906 3.04123 87.1495 3.36848C86.8196 3.6901 86.5736 4.15841 86.4282 4.76215C86.3947 4.90885 86.3611 5.06119 86.3332 5.21918C86.2996 5.37716 86.2717 5.50694 86.2437 5.59722C86.2214 5.68749 86.1878 5.78906 86.1375 5.9019C86.0313 6.16709 85.8076 6.29687 85.4665 6.29687H84.7564C84.3371 6.29687 84.0352 6.21223 83.8562 6.03168C83.6773 5.85112 83.5823 5.56336 83.5823 5.16276V3.43619H82.5535V5.16276C82.5535 5.55772 82.464 5.84548 82.2851 6.02604C82.1062 6.20659 81.8266 6.29687 81.452 6.29687C81.0774 6.29687 80.7978 6.20659 80.6245 6.02604C80.4455 5.84548 80.3561 5.55208 80.3561 5.16276V2.5052H79.3273V2.92838C79.126 2.90581 78.9415 2.88888 78.7905 2.88888C78.0245 2.88888 77.3871 3.09201 76.8951 3.49262C76.403 3.89322 76.1514 4.4631 76.1514 5.19661C76.1514 5.73263 76.3248 6.19531 76.6658 6.57335C77.0013 6.96267 77.4542 7.15451 77.9966 7.15451C78.7346 7.15451 79.2434 6.82161 79.5118 6.17274C79.6572 6.52256 79.8976 6.80468 80.2163 7.00216C80.5574 7.21093 80.9711 7.31814 81.452 7.31814C82.2068 7.31814 82.7771 7.07552 83.1517 6.59027C83.4537 7.07552 83.996 7.31814 84.7564 7.31814H85.4665C86.0816 7.31814 86.5512 7.09808 86.8644 6.66927C87.3284 7.10937 87.8652 7.33506 88.4467 7.33506C88.7598 7.33506 89.0617 7.26736 89.3469 7.1263C89.6153 6.99088 89.8501 6.80468 90.0346 6.56206C90.331 7.06423 90.8789 7.31814 91.6561 7.31814C92.4333 7.31814 92.9756 7.07552 93.3559 6.59027C93.6578 7.07552 94.2001 7.31814 94.9606 7.31814C95.721 7.31814 96.2801 7.07552 96.6547 6.59027C96.9622 7.07552 97.499 7.31814 98.265 7.31814C98.9248 7.31814 99.4504 7.1263 99.825 6.74826C100.205 6.36458 100.395 5.8342 100.395 5.1684V1.28645H99.3609V1.2921ZM79.3273 4.67187C79.3273 5.11762 79.2155 5.48437 79.003 5.7552C78.7961 6.02039 78.5054 6.15581 78.1531 6.15581C77.8512 6.15581 77.6052 6.06553 77.4318 5.87369C77.2529 5.68185 77.1635 5.45052 77.1635 5.18532C77.1635 4.77343 77.32 4.45182 77.6275 4.22048C77.9351 3.98914 78.332 3.87065 78.8129 3.87065C78.9806 3.87065 79.154 3.88758 79.3273 3.91579V4.67187ZM89.1568 5.99218C88.9611 6.21223 88.7151 6.31944 88.4187 6.31944C87.9938 6.31944 87.6024 6.11067 87.2557 5.70442C87.3117 5.4223 87.3676 5.16276 87.4347 4.93142C87.5297 4.58159 87.6527 4.32769 87.8093 4.16406C87.9603 4.00043 88.1615 3.92144 88.3964 3.92144C88.7039 3.92144 88.9611 4.02864 89.1568 4.25434C89.3525 4.47439 89.4531 4.76215 89.4531 5.11197C89.4531 5.48437 89.3525 5.78341 89.1568 5.99782V5.99218Z" fill="#4E4D4D"/>
<path d="M101.43 1.2921H102.464V7.31814H101.43V1.2921Z" fill="#4E4D4D"/>
<path d="M108.609 2.4375C108.765 2.4375 108.905 2.38107 109.023 2.26823C109.134 2.14974 109.196 2.00868 109.196 1.84505C109.196 1.68142 109.134 1.54036 109.023 1.42751C108.905 1.31467 108.765 1.25824 108.609 1.25824C108.452 1.25824 108.313 1.31467 108.201 1.42751C108.083 1.54036 108.027 1.68142 108.027 1.84505C108.027 2.00868 108.083 2.14974 108.201 2.26823C108.313 2.38107 108.452 2.4375 108.609 2.4375Z" fill="#4E4D4D"/>
<path d="M110.845 3.54905C110.454 3.1033 109.956 2.87761 109.353 2.87761C108.704 2.87761 108.184 3.10894 107.804 3.57162C107.429 4.02865 107.233 4.57031 107.233 5.18533C107.233 5.76085 107.412 6.26302 107.753 6.68056C108.1 7.10373 108.575 7.32379 109.174 7.32379C109.699 7.32379 110.113 7.11502 110.409 6.70877V7.00781C110.409 7.61155 110.247 8.05165 109.928 8.3112C109.604 8.56511 109.062 8.69488 108.313 8.69488C106.876 8.69488 106.149 8.0855 106.149 6.88932C106.149 6.62978 106.177 6.35894 106.227 6.08811L106.233 6.05425H105.282L105.277 6.07118C105.187 6.4605 105.142 6.81033 105.142 7.12066C105.142 7.98394 105.439 8.6441 106.031 9.07856C106.618 9.51867 107.384 9.73872 108.313 9.73872C109.319 9.73872 110.096 9.50738 110.627 9.04471C111.159 8.58767 111.427 7.90495 111.427 7.00781V5.33767C111.427 4.59853 111.226 3.99479 110.84 3.54905H110.845ZM110.029 6.00912C109.817 6.2066 109.593 6.30252 109.353 6.30252C109.017 6.30252 108.743 6.18403 108.547 5.94705C108.346 5.71007 108.245 5.42795 108.245 5.11198C108.245 4.79037 108.346 4.51389 108.542 4.27127C108.738 4.03993 109.006 3.9158 109.336 3.9158C109.638 3.9158 109.895 4.03429 110.096 4.27127C110.303 4.50825 110.409 4.84679 110.415 5.27561C110.365 5.56901 110.236 5.81728 110.029 6.00912Z" fill="#4E4D4D"/>
<path d="M110.063 2.4375C110.219 2.4375 110.359 2.38107 110.471 2.26823C110.588 2.14974 110.644 2.00868 110.644 1.84505C110.644 1.68142 110.588 1.54036 110.471 1.42751C110.359 1.31467 110.219 1.25824 110.063 1.25824C109.906 1.25824 109.766 1.31467 109.654 1.42751C109.537 1.54036 109.481 1.68142 109.481 1.84505C109.481 2.00868 109.537 2.14974 109.654 2.26823C109.766 2.38107 109.906 2.4375 110.063 2.4375Z" fill="#4E4D4D"/>
<path d="M116.09 3.54905C115.704 3.1033 115.201 2.87761 114.597 2.87761C113.937 2.87761 113.412 3.10894 113.032 3.57162C112.657 4.02865 112.467 4.57031 112.467 5.18533C112.467 5.79471 112.64 6.26867 112.981 6.69184C113.322 7.10938 113.809 7.32379 114.418 7.32379C114.944 7.32379 115.358 7.11502 115.66 6.70877V6.74262C115.66 7.26736 115.525 7.66233 115.274 7.91059C115.011 8.15886 114.614 8.28299 114.083 8.28299C113.848 8.28299 113.608 8.26606 113.367 8.22656L113.334 8.22092L113.328 9.19705V9.22526H113.35C113.686 9.29297 114.005 9.32682 114.301 9.32682C115.044 9.32682 115.637 9.10113 116.051 8.65538C116.465 8.21528 116.672 7.57205 116.672 6.74826V5.34332C116.672 4.59853 116.476 4.00043 116.09 3.55469V3.54905ZM115.296 5.97526C115.084 6.18967 114.849 6.30252 114.603 6.30252C114.245 6.30252 113.965 6.18403 113.77 5.95269C113.574 5.71571 113.473 5.4336 113.473 5.11198C113.473 4.79037 113.574 4.50825 113.77 4.27127C113.96 4.03429 114.234 3.9158 114.586 3.9158C114.871 3.9158 115.123 4.02865 115.324 4.24306C115.525 4.45747 115.637 4.77344 115.66 5.17405C115.632 5.48438 115.514 5.75521 115.296 5.96962V5.97526Z" fill="#4E4D4D"/>
<path d="M125.483 2.85503C125.64 2.85503 125.78 2.79297 125.897 2.68012C126.009 2.56163 126.071 2.42057 126.071 2.26259C126.071 2.1046 126.009 1.96354 125.897 1.85069C125.78 1.73221 125.64 1.67578 125.483 1.67578C125.327 1.67578 125.187 1.73221 125.075 1.85069C124.958 1.96354 124.902 2.1046 124.902 2.26259C124.902 2.42057 124.958 2.56163 125.075 2.68012C125.187 2.79297 125.327 2.85503 125.483 2.85503Z" fill="#4E4D4D"/>
<path d="M132.981 3.56033C132.473 3.10894 131.852 2.88325 131.125 2.88325C130.549 2.88325 130.046 3.01302 129.627 3.26693C129.241 3.49827 128.933 3.83117 128.71 4.2487V2.87761H127.686V6.30252H127.178C126.758 6.30252 126.456 6.21224 126.277 6.03169C126.099 5.85677 126.003 5.56337 126.003 5.1684V3.4362H124.969V5.1684C124.969 5.55773 124.885 5.84549 124.706 6.02604C124.533 6.2066 124.248 6.29688 123.873 6.29688H122.939C122.559 6.29688 122.274 6.22353 122.09 6.07118C121.911 5.92448 121.804 5.68186 121.776 5.34896V5.25304C121.776 4.51953 121.497 3.93273 120.943 3.50955C120.395 3.08637 119.629 2.87196 118.679 2.87196H118.164V3.9158H118.662C119.383 3.9158 119.915 4.02865 120.25 4.25434C120.58 4.48004 120.748 4.82422 120.748 5.27561C120.748 5.648 120.658 5.9132 120.479 6.06554C120.306 6.21788 119.998 6.29688 119.573 6.29688H117.717V7.3125H119.579C120.395 7.3125 120.994 7.08116 121.363 6.62413C121.67 7.08116 122.201 7.3125 122.939 7.3125H123.873C124.628 7.3125 125.198 7.06988 125.573 6.58464C125.875 7.06988 126.417 7.3125 127.178 7.3125H131.617C132.277 7.3125 132.802 7.1263 133.183 6.75391C133.563 6.38151 133.753 5.8737 133.753 5.24176C133.753 4.57031 133.49 4.00044 132.981 3.54905V3.56033ZM132.45 6.04297C132.277 6.21224 131.992 6.30252 131.617 6.30252H128.704V6.12761C128.726 5.51823 128.978 4.98785 129.448 4.56467C129.923 4.1415 130.488 3.92709 131.125 3.92709C131.589 3.92709 131.975 4.05122 132.271 4.29384C132.568 4.53646 132.719 4.85808 132.719 5.2474C132.719 5.60287 132.629 5.86806 132.45 6.04297Z" fill="#4E4D4D"/>
</svg>
