<svg width="393" height="392" viewBox="0 0 393 392" fill="none" xmlns="http://www.w3.org/2000/svg">
<path d="M392.309 196.004L294.317 365.732L98.3326 365.732L0.340537 196.004L98.3326 26.2771L294.317 26.2772L392.309 196.004Z" fill="white"/>
<mask id="mask0_1_52" style="mask-type:luminance" maskUnits="userSpaceOnUse" x="92" y="102" width="215" height="137">
<path d="M92.9328 102.463H306.378V238.314H92.9328V102.463Z" fill="white"/>
</mask>
<g mask="url(#mask0_1_52)">
<mask id="mask1_1_52" style="mask-type:luminance" maskUnits="userSpaceOnUse" x="94" y="106" width="210" height="132">
<path d="M284.699 138.211L266.427 106.105H191.483L172.687 139.007L153.939 171.932L168.566 197.597L173.164 205.654L191.483 237.759H266.427L303.899 171.932L284.699 138.211ZM267.856 194.679L254.897 217.449H202.941L177.023 171.908L189.982 149.162L202.941 126.391H254.85L268.809 150.826L280.863 171.932L267.856 194.703V194.679ZM163.873 205.775C162.801 207.68 161.396 209.369 159.657 210.888C155.059 214.965 148.913 216.991 141.266 216.991C130.308 216.991 119.374 211.829 108.416 201.481L94.5511 217.932C107.939 231.102 123.566 237.687 141.433 237.687C155.464 237.687 166.803 233.803 175.451 226.012L163.873 205.775ZM170.615 126.271L182.121 106.129H106.772L103.127 169.496L116.61 178.566C124.638 174.73 132.5 172.825 140.146 172.825C141.933 172.825 142.267 172.945 143.887 173.138L144.601 171.908L154.94 153.745C151.605 153.166 148.079 152.876 144.339 152.876C137.526 152.876 130.784 154.107 124.09 156.567L126.115 126.271H170.615Z" fill="white"/>
</mask>
<g mask="url(#mask1_1_52)">
<path d="M94.5511 106.105V237.759H303.899V106.105H94.5511Z" fill="url(#paint0_linear_1_52)"/>
</g>
</g>
<mask id="mask2_1_52" style="mask-type:luminance" maskUnits="userSpaceOnUse" x="92" y="102" width="93" height="137">
<path d="M92.9328 102.463H184.409V238.314H92.9328V102.463Z" fill="white"/>
</mask>
<g mask="url(#mask2_1_52)">
<mask id="mask3_1_52" style="mask-type:luminance" maskUnits="userSpaceOnUse" x="94" y="106" width="89" height="132">
<path d="M163.873 205.774C162.801 207.656 161.396 209.368 159.657 210.888C155.059 214.965 148.913 216.991 141.266 216.991C130.308 216.991 119.374 211.829 108.416 201.457L94.5511 217.907C107.939 231.102 123.566 237.687 141.433 237.687C155.464 237.687 166.803 233.803 175.451 226.012L163.873 205.774ZM170.615 126.271L182.121 106.129H106.772L103.127 169.496L116.61 178.566C124.638 174.73 132.5 172.825 140.146 172.825C141.933 172.825 142.267 172.921 143.887 173.138L144.601 171.908L154.94 153.721C151.605 153.142 148.079 152.876 144.339 152.876C137.526 152.876 130.784 154.107 124.09 156.567L126.115 126.271H170.615Z" fill="white"/>
</mask>
<g mask="url(#mask3_1_52)">
<path d="M94.5511 106.129V237.687H182.121V106.129H94.5511Z" fill="url(#paint1_linear_1_52)"/>
</g>
</g>
<path d="M210.349 263.208L210.373 261.495L219.569 259.903V261.543L210.349 263.208ZM210.349 266.319L210.373 264.607L219.569 263.015V264.679L210.349 266.319Z" fill="#4E4D4D"/>
<path d="M216.016 283.493C216.016 285.013 216.373 286.123 217.064 286.846C217.755 287.57 218.851 287.956 220.304 287.956V291.622C217.803 291.622 215.849 290.899 214.42 289.451C213.015 288.028 212.3 286.026 212.3 283.493V268.755H216.016V283.493Z" fill="#4E4D4D"/>
<path d="M218.853 291.116C218.496 290.754 218.305 290.32 218.305 289.789C218.305 289.234 218.496 288.8 218.853 288.463C219.234 288.101 219.711 287.932 220.306 287.932H226.452V291.623H220.306C219.711 291.623 219.234 291.454 218.853 291.092V291.116Z" fill="#4E4D4D"/>
<path d="M225 291.116C224.642 290.754 224.452 290.32 224.452 289.789C224.452 289.234 224.642 288.8 225 288.463C225.381 288.101 225.857 287.932 226.453 287.932H232.599V291.623H226.453C225.857 291.623 225.381 291.454 225 291.092V291.116Z" fill="#4E4D4D"/>
<path d="M231.173 291.116C230.792 290.754 230.625 290.32 230.625 289.789C230.625 289.234 230.792 288.8 231.173 288.463C231.531 288.101 232.031 287.932 232.603 287.932H238.772V291.623H232.603C232.031 291.623 231.531 291.454 231.173 291.092V291.116Z" fill="#4E4D4D"/>
<path d="M237.319 291.116C236.938 290.754 236.771 290.32 236.771 289.789C236.771 289.234 236.938 288.8 237.319 288.463C237.7 288.101 238.177 287.932 238.772 287.932H244.918V291.623H238.772C238.177 291.623 237.7 291.454 237.319 291.092V291.116Z" fill="#4E4D4D"/>
<path d="M256.106 274.834C258.346 274.834 260.227 275.63 261.728 277.271C263.229 278.887 263.991 280.889 263.991 283.277C263.991 285.834 263.229 287.86 261.728 289.404C260.204 290.923 258.393 291.695 256.297 291.695C254.034 291.695 252.009 290.827 250.222 289.066C249.055 290.779 247.292 291.623 244.91 291.623C244.338 291.623 243.862 291.454 243.481 291.092C243.099 290.73 242.909 290.272 242.909 289.741C242.909 289.187 243.076 288.752 243.457 288.439C243.838 288.101 244.314 287.956 244.91 287.956C246.268 287.956 247.149 287.426 247.578 286.364C247.769 285.93 247.911 285.544 247.983 285.182C248.078 284.821 248.197 284.338 248.316 283.711C248.436 283.084 248.555 282.505 248.698 281.974C249.246 279.683 250.151 277.922 251.437 276.692C252.7 275.462 254.248 274.834 256.106 274.834ZM256.202 288.005C257.345 288.005 258.322 287.595 259.084 286.726C259.87 285.882 260.275 284.724 260.275 283.277C260.275 281.902 259.87 280.792 259.084 279.924C258.322 279.031 257.321 278.597 256.106 278.597C255.177 278.597 254.391 278.935 253.796 279.562C253.176 280.213 252.7 281.202 252.319 282.553C252.08 283.446 251.866 284.459 251.652 285.568C253.009 287.209 254.51 288.005 256.202 288.005Z" fill="#4E4D4D"/>
<path d="M271.905 283.493C271.905 285.013 272.238 286.123 272.953 286.846C273.644 287.594 274.716 287.956 276.169 287.956V291.622C273.668 291.622 271.714 290.899 270.309 289.451C268.879 288.028 268.189 286.026 268.189 283.493V268.755H271.905V283.493Z" fill="#4E4D4D"/>
<path d="M274.716 291.116C274.359 290.754 274.168 290.32 274.168 289.789C274.168 289.234 274.359 288.8 274.716 288.463C275.097 288.101 275.574 287.932 276.169 287.932H282.315V291.623H276.169C275.574 291.623 275.097 291.454 274.716 291.092V291.116Z" fill="#4E4D4D"/>
<path d="M298.944 287.956V291.623H282.316C281.768 291.623 281.291 291.454 280.91 291.092C280.529 290.73 280.315 290.296 280.315 289.789C280.315 289.259 280.529 288.825 280.91 288.487C281.291 288.125 281.768 287.956 282.316 287.956H285.222C283.769 286.991 283.031 285.423 283.031 283.253C283.031 280.72 283.888 278.67 285.627 277.126C287.366 275.582 289.558 274.81 292.202 274.81C294.012 274.81 296.085 275.268 298.42 276.209L297.157 279.538C295.323 278.814 293.727 278.452 292.321 278.452C290.677 278.452 289.343 278.887 288.295 279.779C287.271 280.647 286.747 281.854 286.747 283.373C286.747 284.893 287.199 286.099 288.105 286.847C289.01 287.57 290.415 287.956 292.297 287.956H298.944Z" fill="#4E4D4D"/>
<path d="M114.867 283.612V290.366L118.012 290.849V291.621H108.769V290.849L111.913 290.366V283.709L104.862 272.42L102.67 272.034V271.262H111.151V272.034L108.388 272.42L114.2 281.876L119.727 272.42L117.154 272.034V271.262H123.634V272.034L121.442 272.42L114.867 283.612Z" fill="#4E4D4D"/>
<path d="M125.33 290.85L127.903 290.367V272.421L125.33 272.035V271.263H140.386V276.088H139.433L138.957 272.807C137.813 272.687 136.193 272.614 134.097 272.614H130.857V280.526H136.289L136.67 278.114H137.718V284.385H136.67L136.289 281.973H130.857V290.271H134.764C137.361 290.271 139.052 290.174 139.814 289.982L140.672 286.219H141.72L141.434 291.622H125.33V290.85Z" fill="#4E4D4D"/>
<path d="M150.102 290.848V291.62H143.528V290.848L145.814 290.365L152.675 271.068H155.534L162.585 290.365L165.158 290.848V291.62H156.677V290.848L159.345 290.365L157.344 284.48H149.435L147.434 290.365L150.102 290.848ZM153.342 273.191L149.912 283.129H156.963L153.342 273.191Z" fill="#4E4D4D"/>
<path d="M171.805 282.647V290.366L174.854 290.849V291.621H166.469V290.849L168.851 290.366V272.42L166.278 272.034V271.262H174.949C177.475 271.262 179.356 271.696 180.571 272.517C181.763 273.361 182.382 274.736 182.382 276.665C182.382 278.016 182.001 279.222 181.238 280.235C180.524 281.2 179.523 281.876 178.189 282.262L183.716 290.366L185.812 290.849V291.621H181.048L175.426 282.647H171.805ZM179.333 276.858C179.333 275.315 178.952 274.229 178.189 273.578C177.475 272.951 176.212 272.613 174.378 272.613H171.805V281.297H174.378C176.212 281.297 177.475 280.983 178.189 280.332C178.952 279.632 179.333 278.474 179.333 276.858Z" fill="#4E4D4D"/>
<path d="M188.017 286.12H188.97L189.542 288.918C189.852 289.377 190.447 289.787 191.353 290.173C192.305 290.51 193.211 290.655 194.116 290.655C195.498 290.655 196.593 290.318 197.356 289.594C198.118 288.894 198.499 287.905 198.499 286.603C198.499 285.903 198.332 285.324 198.023 284.866C197.761 284.36 197.38 283.949 196.879 283.612C196.355 283.298 195.783 283.009 195.164 282.743C194.521 282.502 193.878 282.261 193.258 282.068C192.615 281.827 191.972 281.561 191.353 281.296C190.709 280.983 190.138 280.621 189.637 280.235C189.113 279.801 188.708 279.246 188.399 278.595C188.137 277.967 188.017 277.147 188.017 276.182C188.017 274.59 188.589 273.336 189.733 272.42C190.924 271.455 192.615 270.972 194.783 270.972C196.355 270.972 198.118 271.213 200.024 271.648V275.893H199.071L198.499 273.384C197.475 272.612 196.236 272.227 194.783 272.227C193.449 272.227 192.401 272.516 191.638 273.095C190.876 273.674 190.495 274.446 190.495 275.411C190.495 276.062 190.638 276.617 190.971 277.051C191.281 277.509 191.662 277.895 192.115 278.209C192.615 278.474 193.187 278.739 193.83 278.981C194.449 279.173 195.093 279.415 195.736 279.656C196.427 279.921 197.094 280.211 197.737 280.524C198.356 280.79 198.928 281.151 199.452 281.586C199.952 282.044 200.333 282.623 200.596 283.322C200.905 283.974 201.072 284.77 201.072 285.734C201.072 287.737 200.453 289.28 199.261 290.366C198.118 291.403 196.403 291.91 194.116 291.91C193.02 291.91 191.948 291.813 190.876 291.62C189.78 291.427 188.827 291.186 188.017 290.848V286.12Z" fill="#4E4D4D"/>
<defs>
<linearGradient id="paint0_linear_1_52" x1="199.232" y1="237.752" x2="199.232" y2="106.098" gradientUnits="userSpaceOnUse">
<stop stop-color="#937240"/>
<stop offset="0.0078125" stop-color="#947340"/>
<stop offset="0.015625" stop-color="#957341"/>
<stop offset="0.0234375" stop-color="#957441"/>
<stop offset="0.03125" stop-color="#967542"/>
<stop offset="0.0390625" stop-color="#977643"/>
<stop offset="0.046875" stop-color="#987744"/>
<stop offset="0.0546875" stop-color="#997844"/>
<stop offset="0.0625" stop-color="#997945"/>
<stop offset="0.0703125" stop-color="#9A7A46"/>
<stop offset="0.078125" stop-color="#9B7B46"/>
<stop offset="0.0859375" stop-color="#9C7B47"/>
<stop offset="0.09375" stop-color="#9D7C48"/>
<stop offset="0.101562" stop-color="#9D7D49"/>
<stop offset="0.109375" stop-color="#9E7E49"/>
<stop offset="0.117187" stop-color="#9F7F4A"/>
<stop offset="0.125" stop-color="#A0804B"/>
<stop offset="0.132813" stop-color="#A1814B"/>
<stop offset="0.140625" stop-color="#A1824C"/>
<stop offset="0.148438" stop-color="#A2834D"/>
<stop offset="0.15625" stop-color="#A3834D"/>
<stop offset="0.164063" stop-color="#A4844E"/>
<stop offset="0.171875" stop-color="#A5854F"/>
<stop offset="0.179688" stop-color="#A58650"/>
<stop offset="0.1875" stop-color="#A68750"/>
<stop offset="0.195312" stop-color="#A78851"/>
<stop offset="0.203125" stop-color="#A88952"/>
<stop offset="0.210937" stop-color="#A98A52"/>
<stop offset="0.21875" stop-color="#A98B53"/>
<stop offset="0.226562" stop-color="#AA8B54"/>
<stop offset="0.234375" stop-color="#AB8C55"/>
<stop offset="0.242187" stop-color="#AC8D55"/>
<stop offset="0.25" stop-color="#AD8E56"/>
<stop offset="0.257813" stop-color="#AE8F57"/>
<stop offset="0.265625" stop-color="#AE9057"/>
<stop offset="0.273438" stop-color="#AF9158"/>
<stop offset="0.28125" stop-color="#B09259"/>
<stop offset="0.289062" stop-color="#B1935A"/>
<stop offset="0.296875" stop-color="#B2935A"/>
<stop offset="0.304687" stop-color="#B2945B"/>
<stop offset="0.3125" stop-color="#B3955C"/>
<stop offset="0.320312" stop-color="#B4965C"/>
<stop offset="0.328125" stop-color="#B5975D"/>
<stop offset="0.335937" stop-color="#B6985E"/>
<stop offset="0.34375" stop-color="#B6995F"/>
<stop offset="0.351563" stop-color="#B79A5F"/>
<stop offset="0.359375" stop-color="#B89B60"/>
<stop offset="0.367188" stop-color="#B99B61"/>
<stop offset="0.375" stop-color="#BA9C61"/>
<stop offset="0.382812" stop-color="#BA9D62"/>
<stop offset="0.390625" stop-color="#BB9E63"/>
<stop offset="0.398437" stop-color="#BC9F64"/>
<stop offset="0.40625" stop-color="#BDA064"/>
<stop offset="0.414063" stop-color="#BEA165"/>
<stop offset="0.421875" stop-color="#BEA266"/>
<stop offset="0.429688" stop-color="#BFA366"/>
<stop offset="0.4375" stop-color="#C0A367"/>
<stop offset="0.445313" stop-color="#C1A468"/>
<stop offset="0.453125" stop-color="#C2A569"/>
<stop offset="0.460938" stop-color="#C3A669"/>
<stop offset="0.46875" stop-color="#C3A76A"/>
<stop offset="0.476563" stop-color="#C4A86B"/>
<stop offset="0.484375" stop-color="#C5A96B"/>
<stop offset="0.492188" stop-color="#C6AA6C"/>
<stop offset="0.5" stop-color="#C7AB6D"/>
<stop offset="0.507812" stop-color="#C7AB6E"/>
<stop offset="0.515625" stop-color="#C8AC6E"/>
<stop offset="0.523438" stop-color="#C9AD6F"/>
<stop offset="0.53125" stop-color="#CAAE70"/>
<stop offset="0.539062" stop-color="#CBAF70"/>
<stop offset="0.546875" stop-color="#CBB071"/>
<stop offset="0.554687" stop-color="#CCB172"/>
<stop offset="0.5625" stop-color="#CDB273"/>
<stop offset="0.570312" stop-color="#CEB373"/>
<stop offset="0.578125" stop-color="#CFB374"/>
<stop offset="0.585937" stop-color="#CFB475"/>
<stop offset="0.59375" stop-color="#D0B575"/>
<stop offset="0.601562" stop-color="#D1B676"/>
<stop offset="0.609375" stop-color="#D2B777"/>
<stop offset="0.617187" stop-color="#D3B878"/>
<stop offset="0.625" stop-color="#D3B978"/>
<stop offset="0.632813" stop-color="#D4BA79"/>
<stop offset="0.640625" stop-color="#D5BB7A"/>
<stop offset="0.648438" stop-color="#D6BB7A"/>
<stop offset="0.65625" stop-color="#D7BC7B"/>
<stop offset="0.664063" stop-color="#D8BD7C"/>
<stop offset="0.671875" stop-color="#D8BE7C"/>
<stop offset="0.679688" stop-color="#D9BF7D"/>
<stop offset="0.6875" stop-color="#DAC07E"/>
<stop offset="0.75" stop-color="#DAC07E"/>
<stop offset="1" stop-color="#DAC07E"/>
</linearGradient>
<linearGradient id="paint1_linear_1_52" x1="88.8644" y1="111.895" x2="198.986" y2="220.607" gradientUnits="userSpaceOnUse">
<stop stop-color="#6C471D"/>
<stop offset="0.125" stop-color="#6C471D"/>
<stop offset="0.1875" stop-color="#6C471D"/>
<stop offset="0.203125" stop-color="#6C471D"/>
<stop offset="0.210937" stop-color="#6C471D"/>
<stop offset="0.214844" stop-color="#6D481E"/>
<stop offset="0.21875" stop-color="#6E491F"/>
<stop offset="0.222656" stop-color="#6E491F"/>
<stop offset="0.226562" stop-color="#6F4A20"/>
<stop offset="0.230469" stop-color="#704B20"/>
<stop offset="0.234375" stop-color="#704B21"/>
<stop offset="0.238281" stop-color="#714C21"/>
<stop offset="0.242188" stop-color="#714D22"/>
<stop offset="0.246094" stop-color="#724D22"/>
<stop offset="0.25" stop-color="#734E23"/>
<stop offset="0.253906" stop-color="#734F23"/>
<stop offset="0.257812" stop-color="#744F24"/>
<stop offset="0.261719" stop-color="#755025"/>
<stop offset="0.265625" stop-color="#755125"/>
<stop offset="0.269531" stop-color="#765226"/>
<stop offset="0.273438" stop-color="#765226"/>
<stop offset="0.277344" stop-color="#775327"/>
<stop offset="0.28125" stop-color="#785427"/>
<stop offset="0.285156" stop-color="#785428"/>
<stop offset="0.289062" stop-color="#795528"/>
<stop offset="0.292969" stop-color="#795629"/>
<stop offset="0.296875" stop-color="#7A5629"/>
<stop offset="0.300781" stop-color="#7B572A"/>
<stop offset="0.304688" stop-color="#7B582B"/>
<stop offset="0.308594" stop-color="#7C582B"/>
<stop offset="0.3125" stop-color="#7D592C"/>
<stop offset="0.316406" stop-color="#7D5A2C"/>
<stop offset="0.320312" stop-color="#7E5A2D"/>
<stop offset="0.324219" stop-color="#7E5B2D"/>
<stop offset="0.328125" stop-color="#7F5C2E"/>
<stop offset="0.332031" stop-color="#805C2E"/>
<stop offset="0.335938" stop-color="#805D2F"/>
<stop offset="0.339844" stop-color="#815E2F"/>
<stop offset="0.34375" stop-color="#815E30"/>
<stop offset="0.347656" stop-color="#825F31"/>
<stop offset="0.351562" stop-color="#836031"/>
<stop offset="0.355469" stop-color="#836132"/>
<stop offset="0.359375" stop-color="#846132"/>
<stop offset="0.363281" stop-color="#856233"/>
<stop offset="0.367187" stop-color="#856333"/>
<stop offset="0.371094" stop-color="#866334"/>
<stop offset="0.375" stop-color="#866434"/>
<stop offset="0.378906" stop-color="#876535"/>
<stop offset="0.382812" stop-color="#886535"/>
<stop offset="0.386719" stop-color="#886636"/>
<stop offset="0.390625" stop-color="#896737"/>
<stop offset="0.394531" stop-color="#8A6737"/>
<stop offset="0.398437" stop-color="#8A6838"/>
<stop offset="0.402344" stop-color="#8B6938"/>
<stop offset="0.40625" stop-color="#8B6939"/>
<stop offset="0.410156" stop-color="#8C6A39"/>
<stop offset="0.414062" stop-color="#8D6B3A"/>
<stop offset="0.417969" stop-color="#8D6B3A"/>
<stop offset="0.421875" stop-color="#8E6C3B"/>
<stop offset="0.425781" stop-color="#8E6D3C"/>
<stop offset="0.429688" stop-color="#8F6D3C"/>
<stop offset="0.433594" stop-color="#906E3D"/>
<stop offset="0.4375" stop-color="#906F3D"/>
<stop offset="0.441406" stop-color="#91703E"/>
<stop offset="0.445312" stop-color="#92703E"/>
<stop offset="0.449219" stop-color="#92713F"/>
<stop offset="0.453125" stop-color="#93723F"/>
<stop offset="0.457031" stop-color="#937240"/>
<stop offset="0.460937" stop-color="#947340"/>
<stop offset="0.464844" stop-color="#957441"/>
<stop offset="0.46875" stop-color="#957442"/>
<stop offset="0.472656" stop-color="#967542"/>
<stop offset="0.476562" stop-color="#967643"/>
<stop offset="0.480469" stop-color="#977643"/>
<stop offset="0.484375" stop-color="#987744"/>
<stop offset="0.488281" stop-color="#987844"/>
<stop offset="0.492187" stop-color="#997845"/>
<stop offset="0.496094" stop-color="#9A7945"/>
<stop offset="0.5" stop-color="#9A7A46"/>
<stop offset="0.503906" stop-color="#9B7A46"/>
<stop offset="0.507812" stop-color="#9B7B47"/>
<stop offset="0.511719" stop-color="#9C7C48"/>
<stop offset="0.515625" stop-color="#9D7C48"/>
<stop offset="0.519531" stop-color="#9D7D49"/>
<stop offset="0.523438" stop-color="#9E7E49"/>
<stop offset="0.527344" stop-color="#9F7E4A"/>
<stop offset="0.53125" stop-color="#9F7F4A"/>
<stop offset="0.535156" stop-color="#A0804B"/>
<stop offset="0.539062" stop-color="#A0804B"/>
<stop offset="0.542969" stop-color="#A1814C"/>
<stop offset="0.546875" stop-color="#A1824C"/>
<stop offset="0.550781" stop-color="#A2824D"/>
<stop offset="0.554688" stop-color="#A3834D"/>
<stop offset="0.558594" stop-color="#A3844E"/>
<stop offset="0.5625" stop-color="#A4844E"/>
<stop offset="0.566406" stop-color="#A4854F"/>
<stop offset="0.570312" stop-color="#A5854F"/>
<stop offset="0.574219" stop-color="#A58650"/>
<stop offset="0.578125" stop-color="#A68750"/>
<stop offset="0.582031" stop-color="#A78751"/>
<stop offset="0.585938" stop-color="#A78851"/>
<stop offset="0.589844" stop-color="#A88852"/>
<stop offset="0.59375" stop-color="#A88952"/>
<stop offset="0.597656" stop-color="#A98A53"/>
<stop offset="0.601562" stop-color="#A98A53"/>
<stop offset="0.605469" stop-color="#AA8B54"/>
<stop offset="0.609375" stop-color="#AA8C54"/>
<stop offset="0.613281" stop-color="#AB8C54"/>
<stop offset="0.617188" stop-color="#AC8D55"/>
<stop offset="0.621094" stop-color="#AC8D55"/>
<stop offset="0.625" stop-color="#AD8E56"/>
<stop offset="0.628906" stop-color="#AD8F56"/>
<stop offset="0.632812" stop-color="#AE8F57"/>
<stop offset="0.636719" stop-color="#AE9057"/>
<stop offset="0.640625" stop-color="#AF9058"/>
<stop offset="0.644531" stop-color="#AF9158"/>
<stop offset="0.648438" stop-color="#B09259"/>
<stop offset="0.652344" stop-color="#B19259"/>
<stop offset="0.65625" stop-color="#B1935A"/>
<stop offset="0.660156" stop-color="#B2935A"/>
<stop offset="0.664062" stop-color="#B2945B"/>
<stop offset="0.667969" stop-color="#B3955B"/>
<stop offset="0.671875" stop-color="#B3955C"/>
<stop offset="0.675781" stop-color="#B4965C"/>
<stop offset="0.679687" stop-color="#B5975D"/>
<stop offset="0.683594" stop-color="#B5975D"/>
<stop offset="0.6875" stop-color="#B6985E"/>
<stop offset="0.691406" stop-color="#B6985E"/>
<stop offset="0.695312" stop-color="#B7995F"/>
<stop offset="0.699219" stop-color="#B79A5F"/>
<stop offset="0.703125" stop-color="#B89A60"/>
<stop offset="0.707031" stop-color="#B89B60"/>
<stop offset="0.710938" stop-color="#B99B60"/>
<stop offset="0.714844" stop-color="#BA9C61"/>
<stop offset="0.71875" stop-color="#BA9D61"/>
<stop offset="0.722656" stop-color="#BB9D62"/>
<stop offset="0.726562" stop-color="#BB9E62"/>
<stop offset="0.730469" stop-color="#BC9F63"/>
<stop offset="0.734375" stop-color="#BC9F63"/>
<stop offset="0.738281" stop-color="#BDA064"/>
<stop offset="0.742188" stop-color="#BEA064"/>
<stop offset="0.746094" stop-color="#BEA165"/>
<stop offset="0.75" stop-color="#BFA265"/>
<stop offset="0.753906" stop-color="#BFA266"/>
<stop offset="0.757812" stop-color="#C0A366"/>
<stop offset="0.761719" stop-color="#C0A367"/>
<stop offset="0.765625" stop-color="#C1A467"/>
<stop offset="0.769531" stop-color="#C1A568"/>
<stop offset="0.773437" stop-color="#C2A568"/>
<stop offset="0.777344" stop-color="#C3A669"/>
<stop offset="0.78125" stop-color="#C3A769"/>
<stop offset="0.785156" stop-color="#C4A76A"/>
<stop offset="0.789062" stop-color="#C4A86A"/>
<stop offset="0.792969" stop-color="#C5A86B"/>
<stop offset="0.796875" stop-color="#C5A96B"/>
<stop offset="0.800781" stop-color="#C6AA6C"/>
<stop offset="0.804688" stop-color="#C7AA6C"/>
<stop offset="0.808594" stop-color="#C7AB6C"/>
<stop offset="0.8125" stop-color="#C8AB6D"/>
<stop offset="0.816406" stop-color="#C8AC6D"/>
<stop offset="0.820313" stop-color="#C9AD6E"/>
<stop offset="0.824219" stop-color="#C9AD6E"/>
<stop offset="0.828125" stop-color="#CAAE6F"/>
<stop offset="0.835938" stop-color="#CAAE6F"/>
<stop offset="0.84375" stop-color="#CBAF70"/>
<stop offset="0.851562" stop-color="#CCB071"/>
<stop offset="0.859375" stop-color="#CDB172"/>
<stop offset="0.867188" stop-color="#CEB272"/>
<stop offset="0.875" stop-color="#CEB373"/>
<stop offset="0.882812" stop-color="#CFB474"/>
<stop offset="0.890625" stop-color="#D0B575"/>
<stop offset="0.898438" stop-color="#D1B675"/>
<stop offset="0.90625" stop-color="#D2B776"/>
<stop offset="0.914062" stop-color="#D3B877"/>
<stop offset="0.921875" stop-color="#D3B978"/>
<stop offset="0.929688" stop-color="#D4BA79"/>
<stop offset="0.9375" stop-color="#D5BA79"/>
<stop offset="0.945312" stop-color="#D6BB7A"/>
<stop offset="0.953125" stop-color="#D7BC7B"/>
<stop offset="0.960938" stop-color="#D8BD7C"/>
<stop offset="0.96875" stop-color="#D8BE7C"/>
<stop offset="0.976562" stop-color="#D9BF7D"/>
<stop offset="0.984375" stop-color="#DAC07E"/>
<stop offset="1" stop-color="#DAC07E"/>
</linearGradient>
</defs>
</svg>
