<svg width="160" height="114" viewBox="0 0 160 114" fill="none" xmlns="http://www.w3.org/2000/svg">
<path d="M96.2924 0L75 39.4972L96.2924 79H138.761L160 39.4972L149.126 19.2652H134.744L145.613 39.4972L131.57 65.6315H103.425L89.3822 39.4972L103.425 13.3685H110.108L117.24 0H96.2924Z" fill="url(#paint0_linear_1_2)"/>
<path d="M21.2924 35L0 74.4972L21.2924 114H63.7606L85 74.4972L74.126 54.2652H59.7438L70.6126 74.4972L56.5695 100.631H28.4252L14.3822 74.4972L28.4252 48.3685H35.1075L42.2404 35H21.2924Z" fill="url(#paint1_linear_1_2)"/>
<defs>
<linearGradient id="paint0_linear_1_2" x1="117.5" y1="0" x2="117.5" y2="79" gradientUnits="userSpaceOnUse">
<stop stop-color="#F6FBF2" stop-opacity="0.32"/>
<stop offset="1" stop-color="#4FA609" stop-opacity="0.1"/>
</linearGradient>
<linearGradient id="paint1_linear_1_2" x1="42.5" y1="35" x2="42.5" y2="114" gradientUnits="userSpaceOnUse">
<stop stop-color="#F6FBF2" stop-opacity="0.32"/>
<stop offset="1" stop-color="#4FA609" stop-opacity="0.1"/>
</linearGradient>
</defs>
</svg>
