<svg width="154" height="150" viewBox="0 0 154 150" fill="none" xmlns="http://www.w3.org/2000/svg">
<g id="Group 48097346">
<g id="Group 48097344">
<g id="Group 48097342">
<line id="Line 27" x1="41.4897" y1="0.102051" x2="41.4897" y2="226.078" stroke="white"/>
<line id="Line 31" x1="49.4897" y1="0.102051" x2="49.4897" y2="226.078" stroke="white"/>
<line id="Line 28" x1="57.4897" y1="0.102051" x2="57.4897" y2="226.078" stroke="white"/>
<line id="Line 29" x1="65.4897" y1="0.102051" x2="65.4897" y2="226.078" stroke="white"/>
<line id="Line 30" x1="73.4897" y1="0.102051" x2="73.4897" y2="226.078" stroke="white"/>
</g>
<g id="Group 48097343">
<line id="Line 27_2" x1="1.48975" y1="0.102051" x2="1.48974" y2="226.078" stroke="white"/>
<line id="Line 31_2" x1="9.48975" y1="0.102051" x2="9.48974" y2="226.078" stroke="white"/>
<line id="Line 28_2" x1="17.4897" y1="0.102051" x2="17.4897" y2="226.078" stroke="white"/>
<line id="Line 29_2" x1="25.4897" y1="0.102051" x2="25.4897" y2="226.078" stroke="white"/>
<line id="Line 30_2" x1="33.4897" y1="0.102051" x2="33.4897" y2="226.078" stroke="white"/>
</g>
</g>
<g id="Group 48097345">
<g id="Group 48097342_2">
<line id="Line 27_3" x1="121.341" y1="0.102051" x2="121.341" y2="226.078" stroke="white"/>
<line id="Line 31_3" x1="129.341" y1="0.102051" x2="129.341" y2="226.078" stroke="white"/>
<line id="Line 28_3" x1="137.341" y1="0.102051" x2="137.341" y2="226.078" stroke="white"/>
<line id="Line 29_3" x1="145.341" y1="0.102051" x2="145.341" y2="226.078" stroke="white"/>
<line id="Line 30_3" x1="153.341" y1="0.102051" x2="153.341" y2="226.078" stroke="white"/>
</g>
<g id="Group 48097343_2">
<line id="Line 27_4" x1="81.3408" y1="0.102051" x2="81.3408" y2="226.078" stroke="white"/>
<line id="Line 31_4" x1="89.3408" y1="0.102051" x2="89.3408" y2="226.078" stroke="white"/>
<line id="Line 28_4" x1="97.3408" y1="0.102051" x2="97.3408" y2="226.078" stroke="white"/>
<line id="Line 29_4" x1="105.341" y1="0.102051" x2="105.341" y2="226.078" stroke="white"/>
<line id="Line 30_4" x1="113.341" y1="0.102051" x2="113.341" y2="226.078" stroke="white"/>
</g>
</g>
</g>
</svg>
