<svg width="21" height="21" viewBox="0 0 21 21" fill="none" xmlns="http://www.w3.org/2000/svg">
<path d="M11.1252 4.25C11.1252 3.90482 10.8453 3.625 10.5002 3.625C10.155 3.625 9.87516 3.90482 9.87516 4.25V11.3016L9.87011 11.2957C9.69455 11.0885 9.52264 10.8695 9.36188 10.6647L9.32461 10.6172C9.16442 10.4133 8.99589 10.199 8.86501 10.0644C8.62442 9.81686 8.22873 9.81124 7.98121 10.0518C7.73369 10.2924 7.72807 10.6881 7.96865 10.9356C8.04257 11.0117 8.16392 11.1632 8.34159 11.3894L8.3808 11.4393C8.53919 11.6411 8.72501 11.8778 8.91644 12.1037C9.12161 12.3459 9.35126 12.5974 9.58082 12.7929C9.69586 12.8909 9.82552 12.9875 9.96502 13.0622C10.0995 13.1341 10.2849 13.2083 10.5002 13.2083C10.7154 13.2083 10.9008 13.1341 11.0353 13.0622C11.1748 12.9875 11.3045 12.8909 11.4195 12.7929C11.6491 12.5974 11.8787 12.3459 12.0839 12.1037C12.2753 11.8778 12.4611 11.6411 12.6195 11.4394L12.6587 11.3894C12.8364 11.1632 12.9578 11.0117 13.0317 10.9356C13.2723 10.6881 13.2666 10.2924 13.0191 10.0518C12.7716 9.81124 12.3759 9.81686 12.1353 10.0644C12.0044 10.199 11.8359 10.4133 11.6757 10.6172L11.6385 10.6647C11.4777 10.8695 11.3058 11.0885 11.1302 11.2957L11.1252 11.3016V4.25Z" fill="white"/>
<path d="M4.4585 14.25C4.4585 13.9048 4.17867 13.625 3.8335 13.625C3.48832 13.625 3.2085 13.9048 3.2085 14.25C3.2085 14.7806 3.23536 15.2492 3.32282 15.6473C3.41183 16.0525 3.57193 16.4236 3.86593 16.7176C4.15993 17.0116 4.53099 17.1717 4.93619 17.2607C5.33432 17.3481 5.80289 17.375 6.3335 17.375H14.6668C15.1974 17.375 15.666 17.3481 16.0641 17.2607C16.4693 17.1717 16.8404 17.0116 17.1344 16.7176C17.4284 16.4236 17.5885 16.0525 17.6775 15.6473C17.765 15.2492 17.7918 14.7806 17.7918 14.25C17.7918 13.9048 17.512 13.625 17.1668 13.625C16.8217 13.625 16.5418 13.9048 16.5418 14.25C16.5418 14.7536 16.5147 15.1146 16.4566 15.3791C16.4001 15.6366 16.323 15.7612 16.2505 15.8337C16.1781 15.9061 16.0534 15.9832 15.7959 16.0398C15.5314 16.0979 15.1704 16.125 14.6668 16.125H6.3335C5.82994 16.125 5.46893 16.0979 5.2044 16.0398C4.94694 15.9832 4.82227 15.9061 4.74981 15.8337C4.67736 15.7612 4.60026 15.6366 4.54371 15.3791C4.48559 15.1146 4.4585 14.7536 4.4585 14.25Z" fill="white"/>
</svg>
