<svg width="32" height="33" viewBox="0 0 32 33" fill="none" xmlns="http://www.w3.org/2000/svg">
<path d="M17.0001 20.2996C17.0001 19.7474 16.5524 19.2996 16.0001 19.2996C15.4478 19.2996 15.0001 19.7474 15.0001 20.2996V24.2996C15.0001 24.8519 15.4478 25.2996 16.0001 25.2996C16.5524 25.2996 17.0001 24.8519 17.0001 24.2996V20.2996Z" fill="#6D6E71"/>
<path fill-rule="evenodd" clip-rule="evenodd" d="M16.0001 1.96631C14.8453 1.96631 13.813 2.33549 12.6985 2.9609C11.6186 3.56689 10.3812 4.46157 8.82524 5.58663L6.8132 7.04141C5.56448 7.94426 4.56713 8.66537 3.81487 9.33281C3.03815 10.022 2.45707 10.709 2.08848 11.5732C1.71909 12.4392 1.62975 13.3269 1.6793 14.3504C1.72712 15.3382 1.91027 16.5299 2.13865 18.0159L2.55899 20.7512C2.88349 22.863 3.14188 24.5445 3.52148 25.8545C3.914 27.2091 4.46696 28.2845 5.45529 29.1066C6.43951 29.9252 7.61195 30.2898 9.04416 30.4638C10.4374 30.633 12.1949 30.633 14.4149 30.633H17.5853C19.8052 30.633 21.5628 30.633 22.956 30.4638C24.3882 30.2898 25.5607 29.9252 26.5449 29.1066C27.5332 28.2845 28.0862 27.2091 28.4787 25.8545C28.8583 24.5445 29.1167 22.863 29.4412 20.7513L29.8615 18.0158C30.0899 16.5298 30.2731 15.3381 30.3209 14.3504C30.3704 13.3269 30.2811 12.4392 29.9117 11.5732C29.5431 10.709 28.962 10.022 28.1853 9.33281C27.4331 8.66537 26.4357 7.94427 25.187 7.04142L23.1749 5.58664C21.619 4.46159 20.3816 3.56689 19.3017 2.9609C18.1872 2.33549 17.1548 1.96631 16.0001 1.96631ZM9.94733 7.24334C11.5643 6.0742 12.7094 5.24817 13.6772 4.70505C14.622 4.17491 15.3108 3.96631 16.0001 3.96631C16.6894 3.96631 17.3782 4.17491 18.3229 4.70505C19.2908 5.24817 20.4359 6.0742 22.0528 7.24334L23.9726 8.63143C25.2735 9.57201 26.1892 10.2355 26.8579 10.8288C27.5107 11.408 27.8616 11.8643 28.072 12.3578C28.2817 12.8494 28.3642 13.4063 28.3232 14.2537C28.281 15.125 28.115 16.2138 27.8765 17.7657L27.4751 20.3776C27.1374 22.5751 26.8969 24.1275 26.5577 25.2979C26.2273 26.4381 25.8348 27.0958 25.266 27.5689C24.693 28.0455 23.9485 28.3285 22.7149 28.4784C21.4562 28.6313 19.8201 28.633 17.5185 28.633H14.4817C12.18 28.633 10.544 28.6313 9.28531 28.4784C8.05165 28.3285 7.3072 28.0455 6.73422 27.5689C6.16534 27.0958 5.77287 26.4381 5.44246 25.2979C5.10331 24.1275 4.86275 22.5751 4.52505 20.3776L4.12367 17.7657C3.88518 16.2138 3.71914 15.125 3.67696 14.2537C3.63593 13.4063 3.71845 12.8494 3.92813 12.3578C4.13862 11.8643 4.48944 11.408 5.14223 10.8288C5.81097 10.2355 6.72665 9.57201 8.02753 8.63143L9.94733 7.24334Z" fill="#6D6E71"/>
</svg>
