<svg width="335" height="334" viewBox="0 0 335 334" fill="none" xmlns="http://www.w3.org/2000/svg">
<path opacity="0.3" d="M167.467 -0.00183834C259.467 -0.00184236 334.047 74.5786 334.047 166.578C334.047 258.578 259.467 333.158 167.467 333.158C75.4677 333.158 0.887326 258.578 0.887322 166.578C0.887318 74.5786 75.4677 -0.00183431 167.467 -0.00183834ZM167.467 266.526C222.667 266.526 267.415 221.778 267.415 166.578C267.415 111.378 222.667 66.6301 167.467 66.6302C112.268 66.6302 67.5193 111.378 67.5193 166.578C67.5193 221.778 112.268 266.526 167.467 266.526Z" fill="url(#paint0_linear_17_5)"/>
<path d="M167.467 4.31368C206.542 4.31368 244.303 18.4135 273.815 44.0227C303.328 69.632 322.607 105.031 328.113 143.715C333.619 182.399 324.98 221.771 303.785 254.597C282.589 287.423 250.26 311.498 212.738 322.4C175.215 333.301 135.019 330.296 99.5338 313.937C64.0488 297.579 35.6586 268.965 19.579 233.352C3.49939 197.74 0.810438 157.521 12.0061 120.085C23.2019 82.6495 47.5303 50.5107 80.5217 29.5737L110.953 77.5253C89.5082 91.1343 73.6948 112.025 66.4176 136.358C59.1404 160.691 60.8882 186.833 71.3399 209.981C81.7916 233.129 100.245 251.729 123.311 262.362C146.376 272.995 172.503 274.948 196.893 267.862C221.283 260.776 242.297 245.127 256.074 223.79C269.851 202.454 275.466 176.862 271.887 151.717C268.308 126.572 255.776 103.563 236.594 86.9171C217.411 70.2711 192.866 61.1062 167.467 61.1062L167.467 4.31368Z" fill="url(#paint1_linear_17_5)"/>
<defs>
<linearGradient id="paint0_linear_17_5" x1="-2.42591" y1="165.411" x2="330.734" y2="165.411" gradientUnits="userSpaceOnUse">
<stop stop-color="#1D547B"/>
<stop offset="0.963542" stop-color="#042232"/>
</linearGradient>
<linearGradient id="paint1_linear_17_5" x1="1.97548" y1="165.442" x2="326.504" y2="165.442" gradientUnits="userSpaceOnUse">
<stop stop-color="#1D547B"/>
<stop offset="0.963542" stop-color="#042232"/>
</linearGradient>
</defs>
</svg>
