<svg width="335" height="334" viewBox="0 0 335 334" fill="none" xmlns="http://www.w3.org/2000/svg">
<path d="M167.533 0.439568C259.532 0.439564 334.113 75.02 334.113 167.02C334.113 259.019 259.532 333.6 167.533 333.6C75.533 333.6 0.952542 259.019 0.952538 167.02C0.952534 75.02 75.5329 0.439572 167.533 0.439568ZM167.533 266.968C222.732 266.968 267.481 222.219 267.481 167.02C267.481 111.82 222.732 67.0716 167.533 67.0716C112.333 67.0716 67.5845 111.82 67.5845 167.02C67.5845 222.219 112.333 266.968 167.533 266.968Z" fill="white"/>
<path d="M167.533 4.75509C206.607 4.75509 244.369 18.8549 273.881 44.4642C303.393 70.0734 322.673 105.472 328.178 144.156C333.684 182.841 325.045 222.213 303.85 255.039C282.654 287.864 250.326 311.94 212.803 322.841C175.28 333.742 135.084 330.738 99.599 314.379C64.114 298.02 35.7238 269.406 19.6442 233.794C3.5646 198.181 0.875654 157.963 12.0714 120.527C23.2671 83.0909 47.5955 50.9521 80.5869 30.0151L111.018 77.9667C89.5735 91.5757 73.76 112.466 66.4828 136.799C59.2056 161.133 60.9534 187.275 71.4051 210.423C81.8569 233.571 100.311 252.17 123.376 262.803C146.441 273.436 172.569 275.389 196.958 268.304C221.348 261.218 242.362 245.569 256.139 224.232C269.916 202.895 275.531 177.303 271.952 152.158C268.374 127.014 255.842 104.005 236.659 87.3585C217.476 70.7125 192.931 61.5477 167.533 61.5477L167.533 4.75509Z" fill="url(#paint0_linear_1_21)"/>
<defs>
<linearGradient id="paint0_linear_1_21" x1="2.0407" y1="165.883" x2="326.57" y2="165.883" gradientUnits="userSpaceOnUse">
<stop stop-color="#1D547B"/>
<stop offset="0.963542" stop-color="#042232"/>
</linearGradient>
</defs>
</svg>
