<svg width="335" height="334" viewBox="0 0 335 334" fill="none" xmlns="http://www.w3.org/2000/svg">
<path opacity="0.3" d="M167.467 -0.0017773C259.467 -0.00178132 334.047 74.5786 334.047 166.578C334.047 258.578 259.467 333.158 167.467 333.158C75.4677 333.158 0.887295 258.578 0.887291 166.578C0.887287 74.5786 75.4677 -0.00177328 167.467 -0.0017773ZM167.467 266.526C222.667 266.526 267.415 221.778 267.415 166.578C267.415 111.378 222.667 66.6302 167.467 66.6302C112.268 66.6302 67.5193 111.378 67.5193 166.578C67.5193 221.778 112.268 266.526 167.467 266.526Z" fill="url(#paint0_linear_39_4)"/>
<path d="M167.467 4.31387C206.541 4.31386 244.303 18.4137 273.815 44.0229C303.327 69.6321 322.607 105.031 328.113 143.715C333.619 182.399 324.98 221.771 303.785 254.597C282.589 287.423 250.26 311.498 212.738 322.4C175.215 333.301 135.019 330.296 99.5337 313.938C64.0488 297.579 35.6585 268.965 19.5789 233.352C3.49936 197.74 0.810408 157.521 12.0061 120.086C23.2018 82.6497 47.5302 50.5109 80.5216 29.5739L110.953 77.5255C89.5082 91.1345 73.6947 112.025 66.4175 136.358C59.1403 160.691 60.8881 186.834 71.3399 209.982C81.7916 233.13 100.245 251.729 123.31 262.362C146.376 272.995 172.503 274.948 196.893 267.862C221.283 260.776 242.297 245.128 256.074 223.791C269.851 202.454 275.466 176.862 271.887 151.717C268.308 126.572 255.776 103.563 236.594 86.9173C217.411 70.2713 192.866 61.1064 167.467 61.1064L167.467 4.31387Z" fill="url(#paint1_linear_39_4)"/>
<defs>
<linearGradient id="paint0_linear_39_4" x1="-2.42594" y1="165.411" x2="330.734" y2="165.411" gradientUnits="userSpaceOnUse">
<stop stop-color="#3C80B0"/>
<stop offset="0.963542" stop-color="#165578"/>
</linearGradient>
<linearGradient id="paint1_linear_39_4" x1="1.97545" y1="165.442" x2="326.504" y2="165.442" gradientUnits="userSpaceOnUse">
<stop stop-color="#3C80B0"/>
<stop offset="0.963542" stop-color="#165578"/>
</linearGradient>
</defs>
</svg>
