<svg width="194" height="194" viewBox="0 0 194 194" fill="none" xmlns="http://www.w3.org/2000/svg">
<path d="M97.0918 0.537166C118.091 0.537165 138.517 7.38322 155.275 20.0376C172.033 32.692 184.209 50.4648 189.956 70.662C195.704 90.8592 194.71 112.38 187.126 131.961C179.542 151.543 165.78 168.118 147.927 179.174C130.075 190.23 109.104 195.165 88.1942 193.23C67.2845 191.295 47.5757 182.595 32.0552 168.451C16.5347 154.306 6.0488 135.487 2.18689 114.846C-1.67503 94.2047 1.29762 72.8674 10.6542 54.0681L97.0918 97.0889L97.0918 0.537166Z" fill="url(#paint0_linear_3826_8803)"/>
<defs>
<linearGradient id="paint0_linear_3826_8803" x1="-1.38035" y1="96.4126" x2="191.723" y2="96.4126" gradientUnits="userSpaceOnUse">
<stop stop-color="#3C80B0"/>
<stop offset="0.963542" stop-color="#165578"/>
</linearGradient>
</defs>
</svg>
