<svg width="194" height="194" viewBox="0 0 194 194" fill="none" xmlns="http://www.w3.org/2000/svg">
<path d="M97.0918 0.537166C118.745 0.537165 139.77 7.81597 156.789 21.2042C173.807 34.5924 185.832 53.3128 190.93 74.3577C196.027 95.4026 193.903 117.55 184.898 137.242C175.893 156.935 160.529 173.028 141.276 182.937C122.023 192.847 99.9979 195.996 78.7391 191.88C57.4804 187.764 38.2222 176.622 24.0588 160.243C9.8953 143.864 1.64876 123.199 0.644028 101.569C-0.360702 79.9387 5.93471 58.5986 18.5188 40.9771L97.0918 97.0889L97.0918 0.537166Z" fill="url(#paint0_linear_3826_8809)"/>
<defs>
<linearGradient id="paint0_linear_3826_8809" x1="-1.38035" y1="96.4126" x2="191.723" y2="96.4126" gradientUnits="userSpaceOnUse">
<stop stop-color="#1D547B"/>
<stop offset="0.963542" stop-color="#042232"/>
</linearGradient>
</defs>
</svg>
